<svg width="1517" height="911" viewBox="0 0 1517 911" fill="none" xmlns="http://www.w3.org/2000/svg">
<path opacity="0.5" d="M1512.28 -163.042L1512.53 -163.468C1515.54 -161.768 1517.26 -158.338 1516.78 -155.02L1516.28 -155.099C1516.07 -153.663 1515.42 -152.245 1514.23 -151.015L1511.81 -148.52L1512.18 -148.178L1507.36 -143.186L1506.98 -143.528L1502.15 -138.536L1502.53 -138.194L1497.7 -133.202L1497.32 -133.544L1492.5 -128.552L1492.87 -128.21L1488.04 -123.218L1487.67 -123.561L1482.84 -118.569L1483.21 -118.226L1478.38 -113.234L1478.01 -113.577L1473.18 -108.585L1473.55 -108.242L1468.72 -103.25L1468.35 -103.593L1463.52 -98.601L1463.89 -98.2584L1459.06 -93.2665L1458.69 -93.6091L1453.86 -88.6172L1454.23 -88.2746L1449.4 -83.2827L1449.03 -83.6253L1444.2 -78.6334L1444.57 -78.2908L1439.74 -73.2988L1439.37 -73.6415L1434.54 -68.6496L1434.91 -68.307L1430.08 -63.3151L1429.71 -63.6577L1424.88 -58.6658L1425.25 -58.3231L1420.42 -53.3313L1420.05 -53.6738L1415.22 -48.6819L1415.59 -48.3393L1410.76 -43.3474L1410.39 -43.69L1405.56 -38.6981L1405.93 -38.3555L1401.1 -33.3636L1400.73 -33.7062L1395.9 -28.7143L1396.28 -28.3717L1391.45 -23.3798L1391.07 -23.7224L1386.24 -18.7305L1386.62 -18.3879L1381.79 -13.396L1381.42 -13.7386L1376.59 -8.74666L1376.96 -8.40403L1372.13 -3.41216L1371.76 -3.75474L1366.93 1.23713L1367.3 1.57976L1362.47 6.57169L1362.1 6.22906L1357.27 11.221L1357.64 11.5636L1352.81 16.5555L1352.44 16.2129L1347.61 21.2048L1347.98 21.5474L1343.15 26.5393L1342.78 26.1967L1337.95 31.1886L1338.32 31.5312L1333.49 36.5231L1333.12 36.1805L1328.29 41.1724L1328.66 41.5151L1323.83 46.5069L1323.46 46.1643L1318.63 51.1562L1319 51.4989L1314.17 56.4908L1313.8 56.1481L1308.97 61.1401L1309.34 61.4827L1304.51 66.4746L1304.14 66.1319L1299.31 71.1239L1299.68 71.4665L1294.85 76.4584L1294.48 76.1158L1289.65 81.1077L1290.02 81.4503L1285.19 86.4422L1284.82 86.0996L1279.99 91.0915L1280.37 91.4342L1275.54 96.426L1275.16 96.0834L1270.33 101.075L1270.71 101.418L1265.88 106.41L1265.51 106.067L1260.68 111.059L1261.05 111.402L1256.22 116.394L1255.85 116.051L1251.02 121.043L1251.39 121.386L1246.56 126.377L1246.19 126.035L1241.36 131.027L1241.73 131.369L1236.9 136.361L1236.53 136.019L1231.7 141.011L1232.07 141.353L1227.24 146.345L1226.87 146.002L1222.04 150.994L1222.41 151.337L1217.58 156.329L1217.21 155.986L1212.38 160.978L1212.75 161.321L1207.92 166.313L1207.55 165.97L1202.72 170.962L1203.09 171.305L1198.26 176.297L1197.89 175.954L1193.06 180.946L1193.43 181.288L1188.6 186.28L1188.23 185.938L1183.4 190.93L1183.77 191.272L1178.94 196.264L1178.57 195.922L1173.74 200.913L1174.11 201.256L1169.29 206.248L1168.91 205.905L1164.08 210.897L1164.46 211.24L1159.63 216.232L1159.25 215.889L1154.43 220.881L1154.8 221.224L1149.97 226.216L1149.6 225.873L1144.77 230.865L1145.14 231.207L1140.31 236.199L1139.94 235.857L1135.11 240.849L1135.48 241.191L1130.65 246.183L1130.28 245.841L1125.45 250.832L1125.82 251.175L1120.99 256.167L1120.62 255.824L1115.79 260.816L1116.16 261.159L1111.33 266.151L1110.96 265.808L1106.13 270.8L1106.5 271.143L1101.67 276.135L1101.3 275.792L1096.47 280.784L1096.84 281.127L1092.01 286.119L1091.64 285.776L1086.81 290.768L1087.18 291.11L1082.35 296.102L1081.98 295.76L1077.15 300.752L1077.52 301.094L1072.69 306.086L1072.32 305.744L1067.49 310.735L1067.86 311.078L1063.03 316.07L1062.66 315.727L1057.83 320.719L1058.2 321.062L1053.38 326.054L1053 325.711L1048.17 330.703L1048.55 331.046L1043.72 336.038L1043.34 335.695L1038.52 340.687L1038.89 341.03L1034.06 346.021L1033.69 345.679L1028.86 350.671L1029.23 351.013L1024.4 356.005L1024.03 355.663L1019.2 360.655L1019.57 360.997L1014.74 365.989L1014.37 365.646L1009.54 370.638L1009.91 370.981L1005.08 375.973L1004.71 375.63L999.879 380.622L1000.25 380.965L995.421 385.957L995.049 385.614L990.22 390.606L990.591 390.949L985.761 395.94L985.39 395.598L980.56 400.59L980.932 400.932L976.102 405.924L975.731 405.582L970.901 410.574L971.273 410.916L966.443 415.908L966.072 415.565L961.242 420.557L961.614 420.9L956.784 425.892L956.413 425.549L951.583 430.541L951.954 430.884L947.125 435.876L946.753 435.533L941.924 440.525L942.295 440.868L937.466 445.86L937.094 445.517L932.265 450.509L932.636 450.851L927.806 455.843L927.435 455.501L922.606 460.493L922.977 460.835L918.147 465.827L917.776 465.485L912.946 470.477L913.318 470.819L908.488 475.811L908.117 475.468L903.287 480.46L903.659 480.803L898.829 485.795L898.458 485.452L893.628 490.444L893.999 490.787L889.17 495.779L888.799 495.436L883.969 500.428L884.34 500.771L879.511 505.763L879.139 505.42L874.31 510.412L874.681 510.754L869.852 515.746L869.48 515.404L864.651 520.396L865.022 520.738L860.192 525.73L859.821 525.388L854.992 530.379L855.363 530.722L850.533 535.714L850.162 535.371L845.332 540.363L845.704 540.706L840.874 545.698L840.503 545.355L835.673 550.347L836.045 550.69L831.215 555.682L830.844 555.339L826.014 560.331L826.385 560.673L821.556 565.665L821.185 565.323L816.355 570.315L816.726 570.657L811.897 575.649L811.526 575.306L806.696 580.298L807.067 580.641L802.238 585.633L801.866 585.29L797.037 590.282L797.408 590.625L792.579 595.617L792.207 595.274L787.378 600.266L787.749 600.609L782.919 605.6L782.548 605.258L777.719 610.25L778.09 610.592L773.26 615.584L772.889 615.242L768.06 620.233L768.431 620.576L763.601 625.568L763.23 625.225L758.4 630.217L758.772 630.56L753.942 635.552L753.571 635.209L748.741 640.201L749.113 640.544L744.283 645.535L743.912 645.193L739.082 650.185L739.454 650.527L734.624 655.519L734.253 655.177L729.423 660.169L729.794 660.511L724.965 665.503L724.594 665.16L719.764 670.152L720.135 670.495L715.306 675.487L714.934 675.144L710.105 680.136L710.476 680.479L705.647 685.471L705.275 685.128L700.446 690.12L700.817 690.462L695.988 695.454L695.616 695.112L690.787 700.104L691.158 700.446L686.328 705.438L685.957 705.096L681.128 710.087L681.499 710.43L676.669 715.422L676.298 715.079L671.468 720.071L671.84 720.414L667.01 725.406L666.639 725.063L661.809 730.055L662.181 730.398L657.351 735.389L656.98 735.047L652.15 740.039L652.522 740.381L647.692 745.373L647.321 745.031L642.491 750.023L642.862 750.365L638.033 755.357L637.662 755.014L632.832 760.006L633.203 760.349L628.374 765.341L628.002 764.998L623.173 769.99L623.544 770.333L618.715 775.325L618.343 774.982L613.514 779.974L613.885 780.317L609.056 785.308L608.684 784.966L603.855 789.958L604.226 790.3L599.396 795.292L599.025 794.95L594.195 799.942L594.567 800.284L589.737 805.276L589.366 804.933L584.536 809.925L584.908 810.268L580.078 815.26L579.707 814.917L574.877 819.909L575.249 820.252L570.419 825.244L570.048 824.901L565.218 829.893L565.589 830.236L560.76 835.227L560.389 834.885L555.559 839.877L555.93 840.219L551.101 845.211L550.729 844.869L545.9 849.861L546.271 850.203L541.442 855.195L541.07 854.852L536.241 859.844L536.612 860.187L531.783 865.179L531.411 864.836L526.582 869.828L526.953 870.171L522.123 875.163L521.752 874.82L516.922 879.812L517.294 880.154L512.464 885.146L512.093 884.804L507.263 889.796L507.635 890.138L502.805 895.13L502.434 894.788L497.604 899.78L497.976 900.122L493.146 905.114L492.775 904.771L490.36 907.267C489.443 908.215 488.357 908.866 487.203 909.24L487.372 909.709C484.779 910.551 481.858 910.082 479.631 908.468L479.927 908.074C478.936 907.355 478.09 906.394 477.491 905.204L475.925 902.089L475.472 902.3L472.341 896.073L472.795 895.863L469.665 889.637L469.211 889.847L466.081 883.621L466.534 883.41L463.404 877.184L462.95 877.394L459.82 871.168L460.273 870.958L457.143 864.731L456.689 864.942L453.559 858.715L454.012 858.505L450.882 852.279L450.428 852.489L447.298 846.263L447.751 846.052L444.621 839.826L444.167 840.036L441.037 833.81L441.491 833.6L438.36 827.373L437.906 827.584L434.776 821.357L435.23 821.147L432.099 814.921L431.646 815.131L428.515 808.905L428.969 808.694L425.838 802.468L425.385 802.678L422.254 796.452L422.708 796.242L419.577 790.015L419.124 790.226L415.993 783.999L416.447 783.789L413.317 777.563L412.863 777.773L409.732 771.547L410.186 771.336L407.056 765.11L406.602 765.32L403.472 759.094L403.925 758.884L400.795 752.657L400.341 752.868L397.211 746.641L397.664 746.431L394.534 740.205L394.08 740.415L390.95 734.189L391.403 733.978L388.273 727.752L387.819 727.962L384.689 721.736L385.142 721.526L382.012 715.299L381.558 715.51L378.428 709.283L378.882 709.073L375.751 702.847L375.297 703.057L372.167 696.831L372.621 696.62L369.49 690.394L369.037 690.604L365.906 684.378L366.36 684.168L363.229 677.941L362.776 678.152L359.645 671.925L360.099 671.715L356.968 665.489L356.515 665.699L353.384 659.473L353.838 659.263L350.708 653.036L350.254 653.247L347.123 647.02L347.577 646.81L344.447 640.584L343.993 640.794L340.863 634.568L341.316 634.357L338.186 628.131L337.732 628.341L334.602 622.115L335.055 621.905L331.925 615.678L331.471 615.889L328.341 609.662L328.794 609.452L325.664 603.226L325.21 603.436L322.08 597.21L322.533 596.999L319.403 590.773L318.949 590.983L315.819 584.757L316.273 584.547L313.142 578.32L312.689 578.531L309.558 572.304L310.012 572.094L306.881 565.868L306.428 566.078L303.297 559.852L303.751 559.641L300.62 553.415L300.167 553.625L297.036 547.399L297.49 547.189L294.359 540.962L293.906 541.173L290.775 534.946L291.229 534.736L288.099 528.51L287.645 528.72L284.514 522.494L284.968 522.283L281.838 516.057L281.384 516.267L278.254 510.041L278.707 509.831L275.577 503.604L275.123 503.815L271.993 497.588L272.446 497.378L269.316 491.152L268.862 491.362L265.732 485.136L266.185 484.925L263.055 478.699L262.601 478.909L259.471 472.683L259.924 472.473L256.794 466.246L256.34 466.457L253.21 460.23L253.664 460.02L250.533 453.794L250.08 454.004L246.949 447.778L247.403 447.567L244.272 441.341L243.819 441.551L240.688 435.325L241.142 435.115L238.011 428.888L237.558 429.099L234.427 422.872L234.881 422.662L231.75 416.436L231.297 416.646L228.166 410.42L228.62 410.209L225.49 403.983L225.036 404.193L221.905 397.967L222.359 397.757L219.229 391.53L218.775 391.741L215.645 385.514L216.098 385.304L212.968 379.078L212.514 379.288L209.384 373.062L209.837 372.851L206.707 366.625L206.253 366.835L203.123 360.609L203.576 360.399L200.446 354.172L199.992 354.383L196.862 348.156L197.315 347.946L194.185 341.719L193.731 341.93L190.601 335.703L191.054 335.493L187.924 329.267L187.47 329.477L184.34 323.251L184.793 323.04L181.663 316.814L181.209 317.024L178.079 310.798L178.533 310.588L175.402 304.361L174.949 304.572L171.818 298.345L172.272 298.135L169.141 291.909L168.688 292.119L165.557 285.893L166.011 285.682L162.88 279.456L162.427 279.666L159.296 273.44L159.75 273.23L156.619 267.003L156.166 267.214L153.035 260.987L153.489 260.777L150.358 254.551L149.905 254.761L146.774 248.534L147.228 248.324L144.097 242.098L143.644 242.308L140.513 236.082L140.967 235.871L137.837 229.645L137.383 229.855L134.252 223.629L134.706 223.419L131.576 217.192L131.122 217.403L127.992 211.176L128.445 210.966L125.315 204.74L124.861 204.95L121.731 198.724L122.184 198.513L119.054 192.287L118.6 192.497L115.47 186.271L115.923 186.061L112.793 179.834L112.339 180.045L109.209 173.818L109.662 173.608L106.532 167.382L106.078 167.592L102.948 161.366L103.401 161.155L100.271 154.929L99.8174 155.139L96.6869 148.913L97.1405 148.702L94.0101 142.476L93.5565 142.686L90.426 136.46L90.8796 136.25L87.7491 130.023L87.2955 130.234L84.1651 124.007L84.6187 123.797L81.4882 117.571L81.0346 117.781L77.9041 111.555L78.3578 111.344L75.2273 105.118L74.7737 105.328L71.6432 99.1019L72.0968 98.8916L68.9664 92.6653L68.5128 92.8756L65.3823 86.6492L65.8359 86.4389L62.7054 80.2126L62.2518 80.4229L59.1214 74.1965L59.575 73.9862L56.4445 67.7599L55.9909 67.9702L52.8604 61.7438L53.3141 61.5335L50.1836 55.3071L49.73 55.5175L46.5995 49.2911L47.0531 49.0808L43.9227 42.8544L43.4691 43.0648L40.3386 36.8384L40.7922 36.6281L37.6618 30.4018L37.2082 30.6121L34.0777 24.3857L34.5313 24.1754L31.4008 17.9491L30.9472 18.1594L27.8168 11.933L28.2704 11.7227L25.1399 5.49636L24.6863 5.70669L21.5558 -0.519651L22.0095 -0.729986L18.879 -6.95634L18.4254 -6.74601L15.2949 -12.9723L15.7485 -13.1827L12.6181 -19.409L12.1645 -19.1987L9.03401 -25.425L9.48762 -25.6354L6.35716 -31.8617L5.90355 -31.6514L2.77309 -37.8777L3.2267 -38.0881L1.66147 -41.2013C1.06298 -42.3916 0.805521 -43.6256 0.836058 -44.8179L0.330072 -44.8399C0.398779 -47.5191 1.8332 -50.0069 4.1319 -51.4335L4.40956 -51.0154C5.4325 -51.6503 6.63887 -52.0621 7.98145 -52.1623L11.5165 -52.426L11.468 -52.9183L18.542 -53.446L18.5906 -52.9537L25.6646 -53.4815L25.6161 -53.9737L32.6902 -54.5015L32.7387 -54.0092L39.8128 -54.5369L39.7642 -55.0292L46.8383 -55.5569L46.8867 -55.0646L53.9608 -55.5923L53.9123 -56.0846L60.9864 -56.6124L61.0348 -56.12L68.1089 -56.6478L68.0605 -57.1401L75.1345 -57.6678L75.183 -57.1755L82.257 -57.7032L82.2086 -58.1955L89.2827 -58.7233L89.3311 -58.2309L96.4052 -58.7587L96.3567 -59.251L103.431 -59.7787L103.479 -59.2864L110.553 -59.8141L110.505 -60.3065L117.579 -60.8342L117.627 -60.3418L124.702 -60.8696L124.653 -61.3619L131.727 -61.8896L131.776 -61.3973L138.85 -61.925L138.801 -62.4173L145.875 -62.945L145.924 -62.4528L152.998 -62.9805L152.949 -63.4728L160.023 -64.0005L160.072 -63.5082L167.146 -64.0359L167.097 -64.5282L174.171 -65.056L174.22 -64.5636L181.294 -65.0913L181.246 -65.5837L188.32 -66.1114L188.368 -65.6191L195.442 -66.1468L195.394 -66.6391L202.468 -67.1668L202.516 -66.6745L209.59 -67.2022L209.542 -67.6946L216.616 -68.2223L216.664 -67.73L223.738 -68.2577L223.69 -68.75L230.764 -69.2778L230.812 -68.7854L237.886 -69.3131L237.838 -69.8055L244.912 -70.3332L244.961 -69.8409L252.035 -70.3686L251.986 -70.8609L259.06 -71.3887L259.109 -70.8963L266.183 -71.424L266.134 -71.9164L273.208 -72.444L273.257 -71.9518L280.331 -72.4795L280.282 -72.9718L287.356 -73.4995L287.405 -73.0072L294.479 -73.5349L294.43 -74.0272L301.505 -74.5549L301.553 -74.0627L308.627 -74.5904L308.579 -75.0827L315.653 -75.6104L315.701 -75.1181L322.775 -75.6458L322.727 -76.1381L329.801 -76.6659L329.849 -76.1735L336.923 -76.7012L336.875 -77.1936L343.949 -77.7213L343.997 -77.229L351.071 -77.7567L351.023 -78.249L358.097 -78.7768L358.145 -78.2844L365.22 -78.8121L365.171 -79.3045L372.245 -79.8322L372.294 -79.3399L379.368 -79.8676L379.319 -80.3599L386.393 -80.8877L386.442 -80.3953L393.516 -80.923L393.467 -81.4154L400.541 -81.9431L400.59 -81.4508L407.664 -81.9785L407.615 -82.4708L414.69 -82.9986L414.738 -82.5062L421.812 -83.0339L421.764 -83.5263L428.838 -84.054L428.886 -83.5617L435.96 -84.0894L435.912 -84.5817L442.986 -85.1094L443.034 -84.6171L450.108 -85.1448L450.06 -85.6372L457.134 -86.1649L457.182 -85.6725L464.256 -86.2003L464.208 -86.6926L471.282 -87.2203L471.33 -86.728L478.404 -87.2557L478.356 -87.748L485.43 -88.2758L485.478 -87.7835L492.553 -88.3112L492.504 -88.8035L499.578 -89.3312L499.627 -88.8389L506.701 -89.3666L506.652 -89.8589L513.726 -90.3867L513.775 -89.8943L520.849 -90.4221L520.8 -90.9144L527.874 -91.4421L527.923 -90.9498L534.997 -91.4775L534.949 -91.9699L542.023 -92.4976L542.071 -92.0052L549.145 -92.5329L549.097 -93.0253L556.171 -93.553L556.219 -93.0607L563.293 -93.5884L563.245 -94.0807L570.319 -94.6085L570.367 -94.1161L577.441 -94.6438L577.393 -95.1362L584.467 -95.6639L584.515 -95.1716L591.589 -95.6993L591.541 -96.1916L598.615 -96.7193L598.664 -96.227L605.738 -96.7547L605.689 -97.2471L612.763 -97.7748L612.812 -97.2825L619.886 -97.8102L619.837 -98.3025L626.911 -98.8302L626.96 -98.3379L634.034 -98.8656L633.985 -99.3579L641.059 -99.8857L641.108 -99.3934L648.182 -99.9211L648.134 -100.413L655.208 -100.941L655.256 -100.449L662.33 -100.977L662.282 -101.469L669.356 -101.997L669.404 -101.504L676.478 -102.032L676.43 -102.524L683.504 -103.052L683.552 -102.56L690.626 -103.087L690.578 -103.58L697.652 -104.107L697.7 -103.615L704.774 -104.143L704.726 -104.635L711.8 -105.163L711.848 -104.671L718.923 -105.198L718.874 -105.691L725.948 -106.218L725.997 -105.726L733.071 -106.254L733.022 -106.746L740.096 -107.274L740.145 -106.781L747.219 -107.309L747.17 -107.802L754.244 -108.329L754.293 -107.837L761.367 -108.365L761.318 -108.857L768.392 -109.385L768.441 -108.892L775.515 -109.42L775.467 -109.912L782.541 -110.44L782.589 -109.948L789.663 -110.476L789.615 -110.968L796.689 -111.496L796.737 -111.003L803.811 -111.531L803.763 -112.023L810.837 -112.551L810.885 -112.059L817.959 -112.586L817.911 -113.079L824.985 -113.607L825.033 -113.114L832.108 -113.642L832.059 -114.134L839.133 -114.662L839.182 -114.17L846.256 -114.697L846.207 -115.19L853.281 -115.717L853.33 -115.225L860.404 -115.753L860.355 -116.245L867.429 -116.773L867.478 -116.28L874.552 -116.808L874.503 -117.301L881.577 -117.828L881.626 -117.336L888.7 -117.864L888.652 -118.356L895.726 -118.884L895.774 -118.391L902.848 -118.919L902.8 -119.411L909.874 -119.939L909.922 -119.447L916.996 -119.975L916.948 -120.467L924.022 -120.995L924.07 -120.502L931.144 -121.03L931.096 -121.522L938.17 -122.05L938.218 -121.558L945.292 -122.085L945.244 -122.578L952.318 -123.106L952.367 -122.613L959.441 -123.141L959.392 -123.633L966.466 -124.161L966.515 -123.669L973.589 -124.196L973.54 -124.689L980.614 -125.216L980.663 -124.724L987.737 -125.252L987.688 -125.744L994.762 -126.272L994.811 -125.78L1001.88 -126.307L1001.84 -126.8L1008.91 -127.327L1008.96 -126.835L1016.03 -127.363L1015.98 -127.855L1023.06 -128.383L1023.11 -127.89L1030.18 -128.418L1030.13 -128.91L1037.21 -129.438L1037.26 -128.946L1044.33 -129.474L1044.28 -129.966L1051.35 -130.494L1051.4 -130.001L1058.48 -130.529L1058.43 -131.021L1065.5 -131.549L1065.55 -131.057L1072.63 -131.584L1072.58 -132.077L1079.65 -132.604L1079.7 -132.112L1086.77 -132.64L1086.72 -133.132L1093.8 -133.66L1093.85 -133.168L1100.92 -133.695L1100.87 -134.188L1107.95 -134.715L1108 -134.223L1115.07 -134.751L1115.02 -135.243L1122.09 -135.771L1122.14 -135.278L1129.22 -135.806L1129.17 -136.299L1136.24 -136.826L1136.29 -136.334L1143.37 -136.862L1143.32 -137.354L1150.39 -137.882L1150.44 -137.389L1157.51 -137.917L1157.47 -138.409L1164.54 -138.937L1164.59 -138.445L1171.66 -138.973L1171.61 -139.465L1178.69 -139.993L1178.74 -139.5L1185.81 -140.028L1185.76 -140.52L1192.84 -141.048L1192.88 -140.556L1199.96 -141.083L1199.91 -141.576L1206.98 -142.103L1207.03 -141.611L1214.11 -142.139L1214.06 -142.631L1221.13 -143.159L1221.18 -142.667L1228.25 -143.194L1228.21 -143.687L1235.28 -144.214L1235.33 -143.722L1242.4 -144.25L1242.35 -144.742L1249.43 -145.27L1249.48 -144.777L1256.55 -145.305L1256.5 -145.798L1263.58 -146.325L1263.62 -145.833L1270.7 -146.361L1270.65 -146.853L1277.72 -147.381L1277.77 -146.888L1284.85 -147.416L1284.8 -147.908L1291.87 -148.436L1291.92 -147.944L1298.99 -148.472L1298.95 -148.964L1306.02 -149.492L1306.07 -148.999L1313.14 -149.527L1313.09 -150.019L1320.17 -150.547L1320.22 -150.055L1327.29 -150.582L1327.24 -151.075L1334.32 -151.602L1334.36 -151.11L1341.44 -151.638L1341.39 -152.13L1348.46 -152.658L1348.51 -152.166L1355.59 -152.693L1355.54 -153.186L1362.61 -153.713L1362.66 -153.221L1369.73 -153.749L1369.69 -154.241L1376.76 -154.769L1376.81 -154.276L1383.88 -154.804L1383.83 -155.296L1390.91 -155.824L1390.96 -155.332L1398.03 -155.86L1397.98 -156.352L1405.06 -156.88L1405.1 -156.387L1412.18 -156.915L1412.13 -157.407L1419.2 -157.935L1419.25 -157.443L1426.33 -157.971L1426.28 -158.463L1433.35 -158.991L1433.4 -158.498L1440.48 -159.026L1440.43 -159.518L1447.5 -160.046L1447.55 -159.554L1454.62 -160.081L1454.57 -160.574L1461.65 -161.101L1461.7 -160.609L1468.77 -161.137L1468.72 -161.629L1475.8 -162.157L1475.85 -161.665L1482.92 -162.192L1482.87 -162.685L1489.95 -163.212L1489.99 -162.72L1497.07 -163.248L1497.02 -163.74L1504.09 -164.268L1504.14 -163.775L1507.68 -164.039C1509.42 -164.169 1510.98 -163.777 1512.28 -163.042Z" stroke="#54A1C1" stroke-dasharray="7 7"/>
</svg>
