<svg version="1.2" xmlns="http://www.w3.org/2000/svg" viewBox="0 0 1300 1250" width="1300" height="1250"><defs><linearGradient id="P" gradientUnits="userSpaceOnUse"/><linearGradient id="g1" x2="1" href="#P" gradientTransform="matrix(984.15,1345.54,-2335.304,1708.08,-330.012,-66.482)"><stop stop-color="#785c9d" stop-opacity="1"/><stop offset="1" stop-color="#2f4175" stop-opacity=".92"/></linearGradient></defs><style>.a{fill:#54a1c1}.b{fill:#7361a4}.c{fill:url(#g1)}</style><path class="a" d="m-337.6 317.1c1.1-4.9 6.3-7.7 11-5.9l1171.5 439.4c6.7 2.5 7.3 11.7 1 15.1l-1447.9 780.9c-6.2 3.3-13.6-2.2-12-9.2z"/><path class="b" d="m141.8 1006.3c-3.9 3.4-9.8 2.7-12.7-1.6l-711.4-1062.7c-4.1-6.1 0.9-14.1 8.1-13.2l1667.8 213.7c7.2 0.9 10 9.9 4.5 14.8z"/><path class="c" d="m-330.8-57.7c0.4-4.7 4.8-7.9 9.3-6.9l1593.5 359.7c6.4 1.4 8.2 9.7 2.9 13.6l-1733.6 1267.9c-5.3 3.9-12.7-0.2-12.1-6.8z"/></svg>