<svg width="63" height="77" viewBox="0 0 63 77" fill="none" xmlns="http://www.w3.org/2000/svg">
<path fill-rule="evenodd" clip-rule="evenodd" d="M15.9634 39.2897L27.5774 30.2514C27.9077 29.9948 28.3425 29.9179 28.7411 30.0466L39.6176 33.5695L48.2608 24.8578L47.9107 24.889C47.2147 24.9486 46.6051 24.437 46.5437 23.7432C46.4832 23.0493 46.9959 22.4384 47.6902 22.3771L51.471 22.0461C51.8488 22.0133 52.2197 22.1507 52.4834 22.4211C52.748 22.6916 52.8768 23.0666 52.8345 23.4416L52.4125 27.2107C52.3408 27.8553 51.7944 28.3314 51.1606 28.3314C51.1139 28.3314 51.0664 28.3288 51.0188 28.3237C50.3263 28.2459 49.8283 27.6229 49.9053 26.9308L49.9243 26.7605L40.8634 35.8956C40.528 36.2334 40.0317 36.3544 39.5787 36.2075L28.6002 32.6518L17.5136 41.2796C17.2837 41.4585 17.0104 41.5458 16.7398 41.5458C16.3637 41.5458 15.9928 41.379 15.7438 41.0593C15.3159 40.5089 15.4144 39.7174 15.9634 39.2897ZM23.9418 21.6141C24.6387 21.6141 25.2032 21.0499 25.2032 20.3534C25.2032 19.657 24.6387 19.0927 23.9418 19.0927H22.1253C21.4285 19.0927 20.8639 19.657 20.8639 20.3534C20.8639 21.0499 21.4285 21.6141 22.1253 21.6141H23.9418ZM28.8509 21.6141H45.8443C46.5412 21.6141 47.1057 21.0499 47.1057 20.3534C47.1057 19.657 46.5412 19.0927 45.8443 19.0927H28.8509C28.1541 19.0927 27.5895 19.657 27.5895 20.3534C27.5895 21.0499 28.1541 21.6141 28.8509 21.6141ZM22.1253 15.9319H23.9418C24.6387 15.9319 25.2032 15.3677 25.2032 14.6712C25.2032 13.9748 24.6387 13.4105 23.9418 13.4105H22.1253C21.4285 13.4105 20.8639 13.9748 20.8639 14.6712C20.8639 15.3677 21.4285 15.9319 22.1253 15.9319ZM28.8509 15.9319H45.8443C46.5412 15.9319 47.1057 15.3677 47.1057 14.6712C47.1057 13.9748 46.5412 13.4105 45.8443 13.4105H28.8509C28.1541 13.4105 27.5895 13.9748 27.5895 14.6712C27.5895 15.3677 28.1541 15.9319 28.8509 15.9319ZM22.1253 10.2497H23.9418C24.6387 10.2497 25.2032 9.68551 25.2032 8.98906C25.2032 8.29261 24.6387 7.72837 23.9418 7.72837H22.1253C21.4285 7.72837 20.8639 8.29261 20.8639 8.98906C20.8639 9.68464 21.4285 10.2497 22.1253 10.2497ZM28.8509 10.2497H45.8443C46.5412 10.2497 47.1057 9.68551 47.1057 8.98906C47.1057 8.29261 46.5412 7.72837 45.8443 7.72837H28.8509C28.1541 7.72837 27.5895 8.29261 27.5895 8.98906C27.5895 9.68464 28.1541 10.2497 28.8509 10.2497ZM61.0973 58.3858V66.509C61.0973 67.9434 59.9292 69.1107 58.494 69.1107H43.6777L40.3793 71.1404C38.9363 72.0287 37.3567 72.478 35.7226 72.478C34.9151 72.478 34.0938 72.3683 33.2689 72.1471L21.9291 69.1099H17.3753L17.1998 69.211L18.0428 70.6989C18.8399 72.1065 18.3428 73.8986 16.9344 74.6953L13.7466 76.4986C13.3014 76.7509 12.8086 76.8788 12.3097 76.8788C12.046 76.8788 11.7806 76.8434 11.5186 76.7708C10.7621 76.5608 10.1336 76.0709 9.74881 75.3908L0.375 58.8412C-0.422146 57.4344 0.0749889 55.6415 1.48339 54.8448L4.67111 53.0415C5.35154 52.6561 6.14263 52.5602 6.89914 52.7693C7.01068 52.8004 7.11789 52.8384 7.2225 52.8816V10.2031C7.2225 9.498 7.4862 8.86204 7.98506 8.36347L15.519 0.833894C16.0179 0.335321 16.6542 0.0717773 17.3597 0.0717773H58.4932C59.9284 0.0717773 61.0964 1.23915 61.0964 2.67352V50.673C61.7457 51.1284 62.1348 51.6624 62.3319 51.9907C63.6028 54.1103 63.0089 57.1199 61.0973 58.3858ZM58.494 2.59316H18.0661V8.97696C18.0661 10.0415 17.1998 10.9082 16.1338 10.9082H9.74622V55.1006L12.3503 53.5936V46.7605C12.3503 46.064 12.9149 45.4998 13.6118 45.4998H19.867C20.5639 45.4998 21.1285 46.064 21.1285 46.7605V48.9976C22.0311 48.7548 22.9787 48.6416 23.9652 48.7375V39.0209C23.9652 38.3245 24.5297 37.7603 25.2266 37.7603H31.4818C32.1787 37.7603 32.7433 38.3245 32.7433 39.0209V51.5475C33.6675 51.8274 34.6185 52.0875 35.58 52.3087V41.6261C35.58 40.9297 36.1445 40.3654 36.8414 40.3654H43.0967C43.7935 40.3654 44.3581 40.9297 44.3581 41.6261V56.4598L47.1948 54.8085V30.8208C47.1948 30.1244 47.7593 29.5602 48.4562 29.5602H54.7115C55.4083 29.5602 55.9729 30.1244 55.9729 30.8208V50.1736C56.9758 49.8841 57.8395 49.7943 58.577 49.8357V2.67352C58.5744 2.63118 58.5372 2.59316 58.494 2.59316ZM53.4474 32.0815H49.715V53.3404L52.5085 51.7142C52.831 51.5267 53.144 51.3557 53.4474 51.1993V32.0815ZM40.2859 58.1024C40.2159 58.3642 40.1285 58.6113 40.0248 58.8446C40.4069 58.7141 40.7796 58.5422 41.1479 58.3279L41.8344 57.9287V42.8868H38.102V53.0527C39.8778 54.0706 40.8167 56.1228 40.2859 58.1024ZM30.2196 40.2816H26.4871V49.3925C26.9601 49.5584 27.4633 49.7398 27.9837 49.9273C28.6858 50.1814 29.4362 50.4518 30.2196 50.7231V40.2816ZM18.6047 48.0212H14.8723V52.1333L17.5716 50.5711C17.9062 50.3775 18.2503 50.1866 18.6039 50.0051L18.6047 48.0212ZM11.5299 8.38766H15.5433V4.37661L11.5299 8.38766ZM15.8467 71.9414L6.47464 55.3918C6.40287 55.2647 6.28788 55.2172 6.22564 55.1999C6.19797 55.1922 6.1582 55.1844 6.11151 55.1844C6.05358 55.1844 5.98442 55.1965 5.91352 55.2362L2.7258 57.0396C2.53127 57.1493 2.46037 57.4059 2.57018 57.6003L11.9423 74.15C12.014 74.277 12.129 74.3246 12.1913 74.3419C12.2535 74.3591 12.3763 74.3773 12.5034 74.3056L15.6911 72.5022C15.8848 72.3916 15.9565 72.135 15.8467 71.9414ZM59.675 56.3051C60.4929 55.8022 60.7463 54.2503 60.1687 53.2869C59.3154 51.8629 56.8669 52.0953 53.7786 53.8935L42.4171 60.5071C40.6205 61.5526 38.6907 61.8913 36.518 61.544L35.1044 61.3141C35.0958 61.3124 35.0621 61.3064 35.0543 61.3046C33.281 60.9426 31.6383 60.4734 29.8997 59.9774C29.1103 59.7519 28.2941 59.5195 27.4641 59.2974C26.7915 59.1168 26.392 58.4264 26.5719 57.7533C26.7526 57.081 27.4442 56.6818 28.1169 56.8616C28.9668 57.0888 29.7933 57.3247 30.5922 57.5528C32.2643 58.0298 33.8456 58.4808 35.5039 58.8221C36.7766 58.9664 37.5659 58.5059 37.8495 57.45C38.1158 56.4554 37.5296 55.4453 36.48 55.0695C33.0588 54.4421 29.7717 53.254 27.1261 52.2984C26.207 51.9666 25.4125 51.6797 24.7269 51.4567C22.6717 50.7914 20.6815 51.6857 18.8373 52.7529L10.584 57.5286L15.9574 67.0171L18.0099 65.8324C18.2995 65.6656 18.6445 65.6198 18.967 65.7063L33.9226 69.7113C35.7563 70.2029 37.4838 69.961 39.0573 68.9923L59.675 56.3051ZM58.5744 66.509V59.9429L47.774 66.5893H58.494C58.5372 66.5893 58.5744 66.5522 58.5744 66.509ZM5.4233 57.2513C4.80167 57.342 4.3711 57.9201 4.46188 58.5413C4.55267 59.1626 5.13107 59.5929 5.75271 59.5022C6.37434 59.4114 6.80491 58.8334 6.71413 58.2121C6.62334 57.5908 6.04494 57.1605 5.4233 57.2513Z" fill="url(#paint0_linear_168_888)"/>
<defs>
<linearGradient id="paint0_linear_168_888" x1="-7.27698" y1="-32.8716" x2="62.2386" y2="21.23" gradientUnits="userSpaceOnUse">
<stop stop-color="#2F4175"/>
<stop offset="1" stop-color="#334374"/>
</linearGradient>
</defs>
</svg>
