<svg width="74" height="75" viewBox="0 0 74 75" fill="none" xmlns="http://www.w3.org/2000/svg">
<path d="M24.4702 46.147L22.392 50.0221H20.8336C20.317 48.1519 18.6086 46.7742 16.5849 46.7742C14.153 46.7742 12.1751 48.7621 12.1751 51.2063C12.1751 53.6504 14.153 55.6383 16.5849 55.6383C18.6086 55.6383 20.317 54.2607 20.8336 52.3905H23.0955C23.5286 52.3905 23.9272 52.151 24.1325 51.7681L26.2107 47.8931H28.9322L28.3435 49.2256C28.1454 49.673 28.2424 50.197 28.5873 50.5436L32.398 54.3735C32.7429 54.7201 33.2643 54.8177 33.7094 54.6186L36.386 53.4239C37.7014 54.1768 39.1002 54.7597 40.5584 55.1619L41.6099 57.9067C41.7848 58.3638 42.2219 58.6653 42.7096 58.6653H48.098C48.5857 58.6653 49.0228 58.3638 49.1977 57.9067L50.2492 55.1611C51.7058 54.7588 53.1046 54.176 54.42 53.4231L57.0974 54.6186C57.5425 54.8177 58.0639 54.7201 58.4088 54.3735L62.2195 50.5444C62.5644 50.1978 62.6614 49.6738 62.4633 49.2264L61.2746 46.5364C62.0238 45.2135 62.6037 43.8077 63.0039 42.3429L65.735 41.2861C66.1898 41.1104 66.4898 40.671 66.4898 40.1809V34.7654C66.4898 34.2753 66.1898 33.8359 65.735 33.6602L63.0031 32.6034C62.6029 31.1395 62.023 29.7344 61.2738 28.4115L62.4633 25.7207C62.6614 25.2733 62.5644 24.7493 62.2195 24.4027L58.4096 20.5728C58.0647 20.2262 57.5433 20.1286 57.0982 20.3277L54.4216 21.5224C53.1054 20.7695 51.7074 20.1867 50.2492 19.7844L49.1977 17.0396C49.0228 16.5825 48.5857 16.281 48.098 16.281H42.7096C42.2219 16.281 41.7848 16.5825 41.6099 17.0396L40.5584 19.7852C39.101 20.1875 37.703 20.7703 36.3868 21.5232L33.7094 20.3285C33.2643 20.1294 32.7429 20.227 32.398 20.5736L28.5873 24.4027C28.2424 24.7493 28.1454 25.2733 28.3435 25.7207L28.9322 27.0532H26.2107L24.1325 23.1782C23.9272 22.7945 23.5286 22.5559 23.0955 22.5559H20.8336C20.317 20.6857 18.6086 19.308 16.5849 19.308C14.153 19.308 12.1751 21.2959 12.1751 23.7401C12.1751 26.1842 14.153 28.1721 16.5849 28.1721C18.6086 28.1721 20.317 26.7945 20.8336 24.9242H22.392L24.4702 28.7993C24.6756 29.183 25.0742 29.4216 25.5073 29.4216H29.0012C28.5039 30.443 28.1029 31.507 27.8029 32.6034L25.071 33.6602C24.6162 33.8359 24.3162 34.2753 24.3162 34.7654V36.289H17.1087C16.5922 34.4188 14.8837 33.0411 12.8601 33.0411C10.4282 33.0411 8.45022 35.029 8.45022 37.4732C8.45022 39.9173 10.4282 41.9052 12.8601 41.9052C14.8837 41.9052 16.5922 40.5276 17.1087 38.6574H24.3162V40.1809C24.3162 40.671 24.6162 41.1104 25.071 41.2861L27.8029 42.3429C28.1029 43.4401 28.5039 44.5042 29.0004 45.5247H25.5065C25.0742 45.5247 24.6764 45.7641 24.4702 46.147ZM16.5849 53.2699C15.4532 53.2699 14.5316 52.3445 14.5316 51.2063C14.5316 50.0688 15.4524 49.1426 16.5849 49.1426C17.7175 49.1426 18.6383 50.068 18.6383 51.2063C18.6383 52.3445 17.7175 53.2699 16.5849 53.2699ZM16.5849 25.8029C15.4532 25.8029 14.5316 24.8775 14.5316 23.7392C14.5316 22.601 15.4524 21.6756 16.5849 21.6756C17.7175 21.6756 18.6383 22.601 18.6383 23.7392C18.6383 24.8775 17.7175 25.8029 16.5849 25.8029ZM12.8609 39.5368C11.7291 39.5368 10.8075 38.6114 10.8075 37.4732C10.8075 36.3357 11.7283 35.4095 12.8609 35.4095C13.9926 35.4095 14.9142 36.3349 14.9142 37.4732C14.9142 38.6106 13.9926 39.5368 12.8609 39.5368ZM26.6736 39.3675V35.5788L29.2178 34.5945C29.5803 34.4542 29.8506 34.1431 29.9404 33.7634C30.3294 32.1197 30.9751 30.5534 31.8598 29.1096C32.0636 28.7767 32.0908 28.3648 31.9336 28.0077L30.8259 25.5014L33.4921 22.8219L35.9849 23.9351C36.3403 24.0939 36.7501 24.0657 37.0814 23.861C38.5179 22.9718 40.0756 22.3229 41.7118 21.9319C42.0896 21.8416 42.3992 21.57 42.5388 21.2048L43.5181 18.6478H47.2887L48.268 21.204C48.4076 21.5684 48.7172 21.84 49.095 21.9311C50.732 22.3229 52.2905 22.9718 53.7262 23.861C54.0567 24.0657 54.4673 24.0931 54.8227 23.9351L57.3155 22.8227L59.9817 25.5022L58.874 28.0085C58.716 28.3656 58.744 28.7775 58.9478 29.1104C59.8325 30.5542 60.4781 32.1197 60.8672 33.7642C60.957 34.1439 61.2273 34.455 61.5898 34.5953L64.134 35.5796V39.3692L61.5906 40.3526C61.2281 40.4929 60.9578 40.8041 60.8672 41.1837C60.4781 42.829 59.8317 44.3945 58.947 45.8383C58.7432 46.1712 58.716 46.5831 58.8732 46.9403L59.9801 49.4449L57.3139 52.1244L54.8203 51.0112C54.4649 50.8524 54.0551 50.8806 53.7238 51.0853C52.2873 51.9745 50.7296 52.6234 49.0934 53.0144C48.7156 53.1047 48.406 53.3763 48.2664 53.7415L47.2871 56.2985H43.5181L42.5396 53.7423C42.4 53.378 42.0904 53.1063 41.7126 53.0152C40.0756 52.6234 38.5171 51.9745 37.0814 51.0853C36.7509 50.8806 36.3403 50.8532 35.9849 51.0112L33.4929 52.1236L30.8267 49.4441L31.9344 46.9378C32.0924 46.5807 32.0644 46.1688 31.8606 45.8359C30.9759 44.3921 30.3302 42.8266 29.9412 41.1821C29.8514 40.8024 29.5811 40.4913 29.2186 40.351L26.6736 39.3675ZM45.403 48.9282C51.6873 48.9282 56.8006 43.7899 56.8006 37.4732C56.8006 31.1572 51.6881 26.0182 45.403 26.0182C39.1187 26.0182 34.0054 31.1564 34.0054 37.4732C34.0062 43.7891 39.1187 48.9282 45.403 48.9282ZM45.403 28.3874C50.3879 28.3874 54.4433 32.4631 54.4433 37.4732C54.4433 42.4832 50.3879 46.559 45.403 46.559C40.418 46.559 36.3627 42.4832 36.3627 37.4732C36.3627 32.4631 40.418 28.3874 45.403 28.3874ZM7.92565 54.725C8.2529 55.2901 8.06281 56.0156 7.49975 56.3445C7.31286 56.4533 7.10913 56.5057 6.90781 56.5057C6.50196 56.5057 6.10733 56.2945 5.88836 55.9172C1.96698 49.1466 0.326716 41.4401 1.14484 33.6312C2.16589 23.8795 6.9046 15.1113 14.4883 8.94207C22.072 2.77281 31.5911 -0.0599024 41.2939 0.966291C47.7635 1.65069 53.8481 4.01746 59.0408 7.84574L58.2812 5.16941C58.1024 4.54064 58.4649 3.88526 59.0914 3.7055C59.717 3.52573 60.3691 3.8901 60.5479 4.51968L62.3374 10.8219C62.4368 11.1718 62.3703 11.5483 62.1577 11.8433C61.9444 12.1375 61.6091 12.3173 61.2465 12.3302L54.7296 12.5656C54.7152 12.5664 54.7007 12.5664 54.6863 12.5664C54.0551 12.5664 53.5321 12.0642 53.5097 11.4249C53.4864 10.7712 53.9949 10.2222 54.6446 10.1988L58.0743 10.0747C53.1255 6.30605 47.2783 3.98038 41.0477 3.32097C31.9705 2.36088 23.065 5.0098 15.9713 10.7816C8.87773 16.5535 4.44461 24.7558 3.48933 33.8779C2.72414 41.1837 4.25773 48.3929 7.92565 54.725ZM73.7951 41.3159C72.7741 51.0676 68.0354 59.8358 60.4517 66.0051C53.8866 71.3464 45.869 74.1864 37.5394 74.1864C36.2472 74.1864 34.9494 74.1179 33.6461 73.98C27.1797 73.2956 21.0919 70.928 15.8992 67.0998L16.6587 69.7769C16.8376 70.4057 16.4751 71.0611 15.8486 71.2408C15.7403 71.2715 15.6321 71.2868 15.5246 71.2868C15.0113 71.2868 14.5396 70.9474 14.392 70.4274L12.6026 64.1252C12.5031 63.7753 12.5697 63.3989 12.7823 63.1038C12.9956 62.8096 13.3309 62.6298 13.6934 62.6169L20.2104 62.3815C20.8592 62.359 21.4071 62.8684 21.4303 63.5222C21.4536 64.176 20.9451 64.7249 20.2954 64.7483L16.8665 64.8725C21.8137 68.6403 27.6649 70.9675 33.8915 71.6261C42.9679 72.5862 51.8734 69.9365 58.9678 64.1655C66.0615 58.3937 70.4946 50.1913 71.4498 41.0693C72.215 33.7626 70.6806 26.5542 67.0127 20.2221C66.6855 19.657 66.8756 18.9315 67.4378 18.6026C68.0001 18.2737 68.7212 18.4648 69.0492 19.0299C72.973 25.7989 74.6133 33.5054 73.7951 41.3159Z" fill="url(#paint0_linear_168_920)"/>
<defs>
<linearGradient id="paint0_linear_168_920" x1="-7.49175" y1="-30.7328" x2="60.949" y2="33.8719" gradientUnits="userSpaceOnUse">
<stop stop-color="#2F4175"/>
<stop offset="1" stop-color="#334374"/>
</linearGradient>
</defs>
</svg>
