<svg width="64" height="73" viewBox="0 0 64 73" fill="none" xmlns="http://www.w3.org/2000/svg">
<path fill-rule="evenodd" clip-rule="evenodd" d="M53.7565 46.0111C53.4138 46.0111 53.1355 45.7316 53.1355 45.3869L53.1356 6.89166C53.1356 6.54707 53.4136 6.26753 53.7564 6.26753C54.0993 6.26725 54.3774 6.54707 54.3774 6.8918L54.3775 45.3867C54.3775 45.7316 54.0992 46.0111 53.7565 46.0111ZM9.11725 63.8551C8.77431 63.8551 8.49616 63.5758 8.49616 63.231V1.62408C8.49616 1.27949 8.77431 1 9.11711 1H13.9809C14.3238 1 14.6018 1.27949 14.6018 1.62427C14.6019 1.96904 14.3237 2.24858 13.9809 2.24858L9.73806 2.24853V63.2305C9.73806 63.5755 9.45991 63.8553 9.11725 63.8551ZM45.4583 69.1335H5.36899C5.02629 69.1335 4.74805 68.8538 4.74805 68.5091C4.74814 68.1641 5.0262 67.8848 5.36895 67.8848L45.4583 67.8846C45.8011 67.8846 46.0791 68.1643 46.0791 68.5091C46.0792 68.8536 45.801 69.1335 45.4583 69.1335Z" fill="url(#paint0_linear_168_865)" stroke="url(#paint1_linear_168_865)" stroke-width="0.5"/>
<path fill-rule="evenodd" clip-rule="evenodd" d="M2.26932 63.8551C2.47473 66.1272 3.78599 67.8847 5.36897 67.8847C6.95057 67.8845 8.26173 66.1274 8.4671 63.8553L2.26932 63.8551ZM5.36902 69.1334C2.95982 69.1334 1 66.4855 1 63.2309C1 62.886 1.2781 62.6068 1.6209 62.6068L9.11727 62.6066C9.45998 62.6066 9.73799 62.8862 9.73799 63.2309C9.73808 66.4852 7.77827 69.1334 5.36902 69.1334Z" fill="url(#paint2_linear_168_865)" stroke="url(#paint3_linear_168_865)" stroke-width="0.5"/>
<path fill-rule="evenodd" clip-rule="evenodd" d="M16.5292 6.26726H61.7329V4.25818C61.7329 3.15012 60.837 2.24882 59.7342 2.24882L16.5292 2.24878C16.9627 2.80265 17.2212 3.5007 17.2212 4.25818C17.2213 5.01543 16.9625 5.71358 16.5292 6.26726ZM62.3539 7.51612L13.9807 7.51575C13.638 7.51575 13.3599 7.23654 13.3599 6.89176C13.3599 6.54671 13.6379 6.2675 13.9807 6.2675C15.082 6.26726 15.9793 5.36611 15.9793 4.25818C15.9794 3.15012 15.0819 2.24882 13.9807 2.24882C13.638 2.24878 13.3599 1.96928 13.3599 1.62451C13.3599 1.27974 13.6379 1.00024 13.9807 1.00024H59.7341C61.521 1.00024 62.9746 2.46173 62.9746 4.25818L62.9746 6.89167C62.9746 7.05738 62.9082 7.21622 62.7918 7.33334C62.6754 7.45028 62.5187 7.51612 62.3539 7.51612Z" fill="url(#paint4_linear_168_865)" stroke="url(#paint5_linear_168_865)" stroke-width="0.5"/>
<path fill-rule="evenodd" clip-rule="evenodd" d="M36.1432 15.1839H25.8205C25.4776 15.1839 25.1995 14.9044 25.1995 14.5596C25.1996 14.2145 25.4776 13.9353 25.8204 13.9353L36.1432 13.9351C36.4859 13.9351 36.7639 14.2148 36.7639 14.5596C36.764 14.9041 36.4858 15.1839 36.1432 15.1839Z" fill="url(#paint6_linear_168_865)" stroke="url(#paint7_linear_168_865)" stroke-width="0.5"/>
<path fill-rule="evenodd" clip-rule="evenodd" d="M41.8767 18.4661H25.8202C25.4773 18.4661 25.1992 18.1866 25.1992 17.842C25.1994 17.497 25.4773 17.2176 25.8201 17.2176L41.8767 17.2175C42.2194 17.2175 42.4974 17.4971 42.4974 17.842C42.4975 18.1866 42.2193 18.4662 41.8767 18.4661Z" fill="url(#paint8_linear_168_865)" stroke="url(#paint9_linear_168_865)" stroke-width="0.5"/>
<path fill-rule="evenodd" clip-rule="evenodd" d="M36.1432 25.509H25.8205C25.4776 25.509 25.1995 25.2295 25.1995 24.8847C25.1996 24.5396 25.4776 24.2604 25.8204 24.2604L36.1432 24.2601C36.4859 24.2601 36.7639 24.5399 36.7639 24.8847C36.764 25.2295 36.4858 25.509 36.1432 25.509Z" fill="url(#paint10_linear_168_865)" stroke="url(#paint11_linear_168_865)" stroke-width="0.5"/>
<path fill-rule="evenodd" clip-rule="evenodd" d="M41.8767 28.7911H25.8202C25.4773 28.7911 25.1992 28.5118 25.1992 28.167C25.1994 27.822 25.4773 27.5426 25.8201 27.5426L41.8767 27.5426C42.2194 27.5426 42.4974 27.8221 42.4974 28.167C42.4975 28.5116 42.2193 28.7913 41.8767 28.7911Z" fill="url(#paint12_linear_168_865)" stroke="url(#paint13_linear_168_865)" stroke-width="0.5"/>
<path fill-rule="evenodd" clip-rule="evenodd" d="M36.1432 35.8341H25.8205C25.4776 35.8341 25.1995 35.5547 25.1995 35.2099C25.1996 34.8651 25.4776 34.5858 25.8204 34.5858L36.1432 34.5856C36.4859 34.5856 36.7639 34.8652 36.7639 35.2099C36.764 35.5546 36.4858 35.8342 36.1432 35.8341Z" fill="url(#paint14_linear_168_865)" stroke="url(#paint15_linear_168_865)" stroke-width="0.5"/>
<path fill-rule="evenodd" clip-rule="evenodd" d="M41.8767 39.1162H25.8202C25.4773 39.1162 25.1992 38.8369 25.1992 38.4922C25.1994 38.1472 25.4773 37.8679 25.8201 37.8679L41.8767 37.8677C42.2194 37.8677 42.4974 38.1474 42.4974 38.4922C42.4975 38.8367 42.2193 39.1165 41.8767 39.1162Z" fill="url(#paint16_linear_168_865)" stroke="url(#paint17_linear_168_865)" stroke-width="0.5"/>
<path fill-rule="evenodd" clip-rule="evenodd" d="M36.1432 46.1594H25.8205C25.4776 46.1594 25.1995 45.8802 25.1995 45.5354C25.1996 45.1904 25.4776 44.911 25.8204 44.911L36.1432 44.9109C36.4859 44.9109 36.7639 45.1907 36.7639 45.5354C36.764 45.8799 36.4858 46.1597 36.1432 46.1594Z" fill="url(#paint18_linear_168_865)" stroke="url(#paint19_linear_168_865)" stroke-width="0.5"/>
<path fill-rule="evenodd" clip-rule="evenodd" d="M39.3429 49.4416H25.8202C25.4773 49.4416 25.1992 49.162 25.1992 48.8173C25.1994 48.4722 25.4773 48.1931 25.8201 48.1931L39.3429 48.1927C39.6856 48.1927 39.9637 48.4725 39.9637 48.8173C39.9637 49.1617 39.6856 49.4417 39.3429 49.4416Z" fill="url(#paint20_linear_168_865)" stroke="url(#paint21_linear_168_865)" stroke-width="0.5"/>
<path fill-rule="evenodd" clip-rule="evenodd" d="M18.7221 18.4661C18.5637 18.4661 18.4098 18.4046 18.2935 18.2939L16.8204 16.8821C16.5714 16.6443 16.5617 16.2493 16.7977 15.9996C17.0356 15.7499 17.4283 15.7403 17.6757 15.9781L18.6913 16.9502L21.2477 14.1385C21.4789 13.8835 21.8718 13.8662 22.124 14.0988C22.378 14.3313 22.3957 14.7264 22.1644 14.9808L19.1812 18.2626C19.0681 18.3867 18.9111 18.46 18.7446 18.4658C18.7366 18.4661 18.73 18.4662 18.7221 18.4661Z" fill="url(#paint22_linear_168_865)" stroke="url(#paint23_linear_168_865)" stroke-width="0.5"/>
<path fill-rule="evenodd" clip-rule="evenodd" d="M18.7221 49.4411C18.5637 49.4411 18.4098 49.3799 18.2935 49.2692L16.8204 47.8575C16.5714 47.6197 16.5617 47.2246 16.7977 46.975C17.0356 46.7249 17.4283 46.7155 17.6757 46.9533L18.6913 47.9252L21.2477 45.1136C21.4789 44.8589 21.8718 44.8416 22.124 45.0742C22.378 45.3067 22.3957 45.7017 22.1644 45.9562L19.1812 49.2381C19.0681 49.3621 18.9111 49.4352 18.7446 49.4411C18.7366 49.4411 18.73 49.4414 18.7221 49.4411Z" fill="url(#paint24_linear_168_865)" stroke="url(#paint25_linear_168_865)" stroke-width="0.5"/>
<path fill-rule="evenodd" clip-rule="evenodd" d="M18.7221 39.1162C18.5637 39.1162 18.4098 39.0551 18.2935 38.9444L16.8204 37.5326C16.5714 37.2949 16.5617 36.8997 16.7977 36.65C17.0356 36.4001 17.4283 36.3907 17.6757 36.6284L18.6913 37.6003L21.2477 34.7887C21.4789 34.534 21.8718 34.5165 22.124 34.7492C22.378 34.9818 22.3957 35.3768 22.1644 35.6312L19.1812 38.9132C19.0681 39.0372 18.9111 39.1104 18.7446 39.1162C18.7366 39.1162 18.73 39.1165 18.7221 39.1162Z" fill="url(#paint26_linear_168_865)" stroke="url(#paint27_linear_168_865)" stroke-width="0.5"/>
<path fill-rule="evenodd" clip-rule="evenodd" d="M18.7221 28.7912C18.5637 28.7912 18.4098 28.7299 18.2935 28.6192L16.8204 27.2072C16.5714 26.9698 16.5617 26.5745 16.7977 26.3248C17.0356 26.075 17.4283 26.0655 17.6757 26.3033L18.6913 27.2753L21.2477 24.4636C21.4789 24.2086 21.8718 24.1912 22.124 24.4241C22.378 24.6564 22.3957 25.0514 22.1644 25.3059L19.1812 28.5881C19.0681 28.7121 18.9111 28.7852 18.7446 28.7909C18.7366 28.7912 18.73 28.7914 18.7221 28.7912Z" fill="url(#paint28_linear_168_865)" stroke="url(#paint29_linear_168_865)" stroke-width="0.5"/>
<path fill-rule="evenodd" clip-rule="evenodd" d="M48.1134 63.1103C47.9469 63.1103 47.7867 63.0431 47.6703 62.9227L43.1476 58.2743C42.9085 58.0277 42.9132 57.6326 43.1573 57.3914C43.4033 57.1505 43.796 57.1548 44.0353 57.4012L48.0827 61.5607L56.7933 51.2736C57.0163 51.011 57.4076 50.9796 57.6679 51.2032C57.93 51.4266 57.9605 51.8208 57.739 52.0833L48.587 62.8908C48.4739 63.0244 48.309 63.104 48.1359 63.1102C48.1279 63.1103 48.1214 63.1105 48.1134 63.1103Z" fill="url(#paint30_linear_168_865)" stroke="url(#paint31_linear_168_865)" stroke-width="0.5"/>
<path fill-rule="evenodd" clip-rule="evenodd" d="M39.9413 46.749L40.0544 57.2445C40.0932 60.9759 40.9355 63.2357 43.1573 65.5815C46.1989 68.7914 49.528 70.4553 50.4287 70.8699C51.3294 70.4537 54.6668 68.7833 57.7001 65.5815C59.9235 63.2355 60.7643 60.9763 60.8047 57.2449L60.9163 46.749C57.0162 47.2018 53.4896 46.4072 50.4287 44.3839C47.3678 46.4069 43.8428 47.2018 39.9413 46.749ZM50.4288 72.1763C50.3494 72.1763 50.2686 72.1611 50.1942 72.13C50.0229 72.06 45.9788 70.3697 42.2582 66.4427C39.4479 63.4765 38.848 60.626 38.8125 57.2583L38.6912 46.0415C38.6897 45.8582 38.7672 45.6835 38.9046 45.5634C39.0421 45.4434 39.2264 45.3896 39.4059 45.4177C43.2884 46.0129 46.7711 45.3117 49.7576 43.333C50.0666 43.1289 50.2055 43.0361 50.4287 43.0361C50.652 43.0359 50.7925 43.1291 51.0997 43.333C54.0864 45.3117 57.5691 46.0132 61.4515 45.4177C61.631 45.3892 61.8153 45.4432 61.9527 45.5634C62.0903 45.6833 62.1678 45.8583 62.1662 46.0415L62.0467 57.2581C62.0094 60.6261 61.4095 63.4766 58.5992 66.4427C54.8786 70.3696 50.8345 72.0601 50.6632 72.13C50.5888 72.1609 50.5079 72.1765 50.4288 72.1763Z" fill="url(#paint32_linear_168_865)" stroke="url(#paint33_linear_168_865)" stroke-width="0.5"/>
<defs>
<linearGradient id="paint0_linear_168_865" x1="-0.979466" y1="-28.2232" x2="58.5237" y2="12.8953" gradientUnits="userSpaceOnUse">
<stop stop-color="#2F4175"/>
<stop offset="1" stop-color="#334374"/>
</linearGradient>
<linearGradient id="paint1_linear_168_865" x1="-0.979466" y1="-28.2232" x2="58.5237" y2="12.8953" gradientUnits="userSpaceOnUse">
<stop stop-color="#2F4175"/>
<stop offset="1" stop-color="#334374"/>
</linearGradient>
<linearGradient id="paint2_linear_168_865" x1="-0.00841315" y1="59.8071" x2="5.91533" y2="67.3307" gradientUnits="userSpaceOnUse">
<stop stop-color="#2F4175"/>
<stop offset="1" stop-color="#334374"/>
</linearGradient>
<linearGradient id="paint3_linear_168_865" x1="-0.00841315" y1="59.8071" x2="5.91533" y2="67.3307" gradientUnits="userSpaceOnUse">
<stop stop-color="#2F4175"/>
<stop offset="1" stop-color="#334374"/>
</linearGradient>
<linearGradient id="paint4_linear_168_865" x1="7.63404" y1="-1.79449" x2="9.28673" y2="10.1439" gradientUnits="userSpaceOnUse">
<stop stop-color="#2F4175"/>
<stop offset="1" stop-color="#334374"/>
</linearGradient>
<linearGradient id="paint5_linear_168_865" x1="7.63404" y1="-1.79449" x2="9.28673" y2="10.1439" gradientUnits="userSpaceOnUse">
<stop stop-color="#2F4175"/>
<stop offset="1" stop-color="#334374"/>
</linearGradient>
<linearGradient id="paint6_linear_168_865" x1="23.8649" y1="13.3994" x2="24.1269" y2="15.7016" gradientUnits="userSpaceOnUse">
<stop stop-color="#2F4175"/>
<stop offset="1" stop-color="#334374"/>
</linearGradient>
<linearGradient id="paint7_linear_168_865" x1="23.8649" y1="13.3994" x2="24.1269" y2="15.7016" gradientUnits="userSpaceOnUse">
<stop stop-color="#2F4175"/>
<stop offset="1" stop-color="#334374"/>
</linearGradient>
<linearGradient id="paint8_linear_168_865" x1="23.2029" y1="16.682" x2="23.3793" y2="19.0001" gradientUnits="userSpaceOnUse">
<stop stop-color="#2F4175"/>
<stop offset="1" stop-color="#334374"/>
</linearGradient>
<linearGradient id="paint9_linear_168_865" x1="23.2029" y1="16.682" x2="23.3793" y2="19.0001" gradientUnits="userSpaceOnUse">
<stop stop-color="#2F4175"/>
<stop offset="1" stop-color="#334374"/>
</linearGradient>
<linearGradient id="paint10_linear_168_865" x1="23.8649" y1="23.7245" x2="24.1269" y2="26.0267" gradientUnits="userSpaceOnUse">
<stop stop-color="#2F4175"/>
<stop offset="1" stop-color="#334374"/>
</linearGradient>
<linearGradient id="paint11_linear_168_865" x1="23.8649" y1="23.7245" x2="24.1269" y2="26.0267" gradientUnits="userSpaceOnUse">
<stop stop-color="#2F4175"/>
<stop offset="1" stop-color="#334374"/>
</linearGradient>
<linearGradient id="paint12_linear_168_865" x1="23.2029" y1="27.0071" x2="23.3793" y2="29.3251" gradientUnits="userSpaceOnUse">
<stop stop-color="#2F4175"/>
<stop offset="1" stop-color="#334374"/>
</linearGradient>
<linearGradient id="paint13_linear_168_865" x1="23.2029" y1="27.0071" x2="23.3793" y2="29.3251" gradientUnits="userSpaceOnUse">
<stop stop-color="#2F4175"/>
<stop offset="1" stop-color="#334374"/>
</linearGradient>
<linearGradient id="paint14_linear_168_865" x1="23.8649" y1="34.0501" x2="24.1268" y2="36.3516" gradientUnits="userSpaceOnUse">
<stop stop-color="#2F4175"/>
<stop offset="1" stop-color="#334374"/>
</linearGradient>
<linearGradient id="paint15_linear_168_865" x1="23.8649" y1="34.0501" x2="24.1268" y2="36.3516" gradientUnits="userSpaceOnUse">
<stop stop-color="#2F4175"/>
<stop offset="1" stop-color="#334374"/>
</linearGradient>
<linearGradient id="paint16_linear_168_865" x1="23.2029" y1="37.3322" x2="23.3792" y2="39.6501" gradientUnits="userSpaceOnUse">
<stop stop-color="#2F4175"/>
<stop offset="1" stop-color="#334374"/>
</linearGradient>
<linearGradient id="paint17_linear_168_865" x1="23.2029" y1="37.3322" x2="23.3792" y2="39.6501" gradientUnits="userSpaceOnUse">
<stop stop-color="#2F4175"/>
<stop offset="1" stop-color="#334374"/>
</linearGradient>
<linearGradient id="paint18_linear_168_865" x1="23.8649" y1="44.3754" x2="24.1268" y2="46.677" gradientUnits="userSpaceOnUse">
<stop stop-color="#2F4175"/>
<stop offset="1" stop-color="#334374"/>
</linearGradient>
<linearGradient id="paint19_linear_168_865" x1="23.8649" y1="44.3754" x2="24.1268" y2="46.677" gradientUnits="userSpaceOnUse">
<stop stop-color="#2F4175"/>
<stop offset="1" stop-color="#334374"/>
</linearGradient>
<linearGradient id="paint20_linear_168_865" x1="23.4953" y1="47.6571" x2="23.7016" y2="49.9707" gradientUnits="userSpaceOnUse">
<stop stop-color="#2F4175"/>
<stop offset="1" stop-color="#334374"/>
</linearGradient>
<linearGradient id="paint21_linear_168_865" x1="23.4953" y1="47.6571" x2="23.7016" y2="49.9707" gradientUnits="userSpaceOnUse">
<stop stop-color="#2F4175"/>
<stop offset="1" stop-color="#334374"/>
</linearGradient>
<linearGradient id="paint22_linear_168_865" x1="15.9692" y1="11.9918" x2="20.1342" y2="16.9625" gradientUnits="userSpaceOnUse">
<stop stop-color="#2F4175"/>
<stop offset="1" stop-color="#334374"/>
</linearGradient>
<linearGradient id="paint23_linear_168_865" x1="15.9692" y1="11.9918" x2="20.1342" y2="16.9625" gradientUnits="userSpaceOnUse">
<stop stop-color="#2F4175"/>
<stop offset="1" stop-color="#334374"/>
</linearGradient>
<linearGradient id="paint24_linear_168_865" x1="15.9692" y1="42.9673" x2="20.134" y2="47.9379" gradientUnits="userSpaceOnUse">
<stop stop-color="#2F4175"/>
<stop offset="1" stop-color="#334374"/>
</linearGradient>
<linearGradient id="paint25_linear_168_865" x1="15.9692" y1="42.9673" x2="20.134" y2="47.9379" gradientUnits="userSpaceOnUse">
<stop stop-color="#2F4175"/>
<stop offset="1" stop-color="#334374"/>
</linearGradient>
<linearGradient id="paint26_linear_168_865" x1="15.9692" y1="32.6423" x2="20.134" y2="37.6129" gradientUnits="userSpaceOnUse">
<stop stop-color="#2F4175"/>
<stop offset="1" stop-color="#334374"/>
</linearGradient>
<linearGradient id="paint27_linear_168_865" x1="15.9692" y1="32.6423" x2="20.134" y2="37.6129" gradientUnits="userSpaceOnUse">
<stop stop-color="#2F4175"/>
<stop offset="1" stop-color="#334374"/>
</linearGradient>
<linearGradient id="paint28_linear_168_865" x1="15.9692" y1="22.3169" x2="20.1343" y2="27.2876" gradientUnits="userSpaceOnUse">
<stop stop-color="#2F4175"/>
<stop offset="1" stop-color="#334374"/>
</linearGradient>
<linearGradient id="paint29_linear_168_865" x1="15.9692" y1="22.3169" x2="20.1343" y2="27.2876" gradientUnits="userSpaceOnUse">
<stop stop-color="#2F4175"/>
<stop offset="1" stop-color="#334374"/>
</linearGradient>
<linearGradient id="paint30_linear_168_865" x1="41.2498" y1="45.883" x2="52.3635" y2="58.9267" gradientUnits="userSpaceOnUse">
<stop stop-color="#2F4175"/>
<stop offset="1" stop-color="#334374"/>
</linearGradient>
<linearGradient id="paint31_linear_168_865" x1="41.2498" y1="45.883" x2="52.3635" y2="58.9267" gradientUnits="userSpaceOnUse">
<stop stop-color="#2F4175"/>
<stop offset="1" stop-color="#334374"/>
</linearGradient>
<linearGradient id="paint32_linear_168_865" x1="35.982" y1="30.5376" x2="62.2343" y2="50.6007" gradientUnits="userSpaceOnUse">
<stop stop-color="#2F4175"/>
<stop offset="1" stop-color="#334374"/>
</linearGradient>
<linearGradient id="paint33_linear_168_865" x1="35.982" y1="30.5376" x2="62.2343" y2="50.6007" gradientUnits="userSpaceOnUse">
<stop stop-color="#2F4175"/>
<stop offset="1" stop-color="#334374"/>
</linearGradient>
</defs>
</svg>
