<svg width="68" height="68" viewBox="0 0 68 68" fill="none" xmlns="http://www.w3.org/2000/svg">
<path d="M16.6673 66.8343V1.16571C16.6673 0.528457 17.1934 0 17.8279 0H54.1648C54.4743 0 54.7683 0.124343 54.985 0.341943L67.6595 13.1648C67.8762 13.3824 68 13.6777 68 13.973V66.8343C68 67.4715 67.4738 68 66.8393 68H17.8279C17.178 68 16.6673 67.4871 16.6673 66.8343ZM18.9886 65.6686H65.6787V14.4549L55.31 3.97897V12.7451H61.9335C62.568 12.7451 63.0942 13.2736 63.0942 13.9109C63.0942 14.5481 62.5835 15.0766 61.9335 15.0766H54.1493C53.5148 15.0766 52.9886 14.5481 52.9886 13.9109V2.33143H18.9731V65.6686H18.9886Z" fill="url(#paint0_linear_168_904)"/>
<path d="M55.3099 31.9716C55.3099 32.6089 54.7838 33.1373 54.1493 33.1373H27.4228C26.7883 33.1373 26.2621 32.6089 26.2621 31.9716C26.2621 31.3344 26.7883 30.8059 27.4228 30.8059H54.1647C54.7992 30.8059 55.3099 31.3344 55.3099 31.9716Z" fill="url(#paint1_linear_168_904)"/>
<path d="M27.4228 37.3495H40.7938C41.4283 37.3495 41.9545 37.8779 41.9545 38.5152C41.9545 39.1525 41.4283 39.6809 40.7938 39.6809H27.4228C26.7883 39.6809 26.2622 39.1525 26.2622 38.5152C26.2622 37.8779 26.7729 37.3495 27.4228 37.3495Z" fill="url(#paint2_linear_168_904)"/>
<path d="M54.1648 39.6809H44.9258C44.2913 39.6809 43.7651 39.1525 43.7651 38.5152C43.7651 37.8779 44.2913 37.3495 44.9258 37.3495H54.1648C54.7993 37.3495 55.3254 37.8779 55.3254 38.5152C55.3254 39.1525 54.7993 39.6809 54.1648 39.6809Z" fill="url(#paint3_linear_168_904)"/>
<path d="M27.4228 43.8931H54.1648C54.7993 43.8931 55.3254 44.4215 55.3254 45.0588C55.3254 45.696 54.7993 46.2245 54.1648 46.2245H27.4228C26.7883 46.2245 26.2622 45.696 26.2622 45.0588C26.2622 44.4215 26.7729 43.8931 27.4228 43.8931Z" fill="url(#paint4_linear_168_904)"/>
<path d="M27.4228 50.4365H31.6477C32.2822 50.4365 32.8083 50.965 32.8083 51.6022C32.8083 52.2395 32.2822 52.768 31.6477 52.768H27.4228C26.7883 52.768 26.2622 52.2395 26.2622 51.6022C26.2622 50.965 26.7728 50.4365 27.4228 50.4365Z" fill="url(#paint5_linear_168_904)"/>
<path d="M54.1648 52.768H35.6714C35.0369 52.768 34.5107 52.2395 34.5107 51.6022C34.5107 50.965 35.0369 50.4365 35.6714 50.4365H54.1648C54.7993 50.4365 55.3254 50.965 55.3254 51.6022C55.3254 52.2395 54.7993 52.768 54.1648 52.768Z" fill="url(#paint6_linear_168_904)"/>
<path d="M27.4228 56.9801H54.1648C54.7993 56.9801 55.3254 57.5086 55.3254 58.1458C55.3254 58.7831 54.7993 59.3115 54.1648 59.3115H27.4228C26.7883 59.3115 26.2622 58.7831 26.2622 58.1458C26.2622 57.5086 26.7729 56.9801 27.4228 56.9801Z" fill="url(#paint7_linear_168_904)"/>
<path d="M2.8321 16.8019H4.08563V15.3098C4.08563 12.9628 5.97366 11.0666 8.31048 11.051C10.6473 11.051 12.5353 12.9628 12.5353 15.2942L12.5663 51.9132C12.5663 52.022 12.5508 52.1308 12.5199 52.2396L9.45568 62.6999C9.31639 63.1973 8.85213 63.5393 8.34143 63.5393C7.83074 63.5393 7.38194 63.1973 7.22718 62.6999L4.14753 52.2396C4.11658 52.1308 4.1011 52.022 4.1011 51.9132L4.07015 19.1178H2.81663C2.53806 19.1178 2.32141 19.3509 2.32141 19.6151V27.3555C2.32141 27.9927 1.79523 28.5212 1.16073 28.5212C0.526231 28.5212 5.91278e-05 27.9927 5.91278e-05 27.3555V19.6151C5.91278e-05 18.0764 1.26906 16.8019 2.8321 16.8019ZM9.65686 13.9575C9.30092 13.6001 8.8057 13.398 8.31048 13.398C7.25814 13.398 6.3915 14.2529 6.3915 15.3253L6.42245 50.7786H10.2449L10.2295 28.4279H8.58904C7.95454 28.4279 7.42837 27.8995 7.42837 27.2622C7.42837 26.625 7.95454 26.0965 8.58904 26.0965H10.2295L10.214 15.3098C10.214 14.7969 10.0283 14.315 9.65686 13.9575ZM8.35691 58.2702L9.87352 53.0945H6.84029L8.35691 58.2702Z" fill="url(#paint8_linear_168_904)"/>
<path d="M46.752 19.1798C45.4675 21.3092 43.4866 22.9412 41.1498 23.7961C40.9177 23.8738 40.6701 23.8738 40.4379 23.7961C38.1011 22.9412 36.1202 21.3092 34.8357 19.1798C34.1393 17.952 33.6596 13.0404 33.4894 10.9888C33.4429 10.3515 33.9072 9.77642 34.5572 9.72979C34.5727 9.72979 34.5881 9.72979 34.6036 9.72979C35.7024 9.66762 36.7702 9.43448 37.7916 9.06145C38.5963 8.70396 39.3856 8.26876 40.1129 7.75585C40.5153 7.47608 41.0415 7.47608 41.4438 7.75585C42.1712 8.26876 42.9605 8.70396 43.7807 9.06145C44.8021 9.43448 45.8853 9.66762 46.9686 9.72979C47.6031 9.76088 48.1138 10.3049 48.0829 10.9421C48.0829 10.9577 48.0829 10.9732 48.0829 10.9888C47.9281 13.0404 47.4484 17.9675 46.752 19.1798ZM42.9295 11.2374C42.1867 10.9266 41.4748 10.5536 40.7939 10.1184C40.1129 10.5536 39.3856 10.9266 38.6427 11.2374C37.7606 11.5794 36.8476 11.8125 35.9036 11.9369C36.0274 13.9885 36.3524 16.0246 36.8476 18.0297C37.7761 19.5529 39.1534 20.7497 40.7939 21.4491C42.4343 20.7497 43.8116 19.5529 44.7247 18.0297C45.2199 16.0246 45.5449 13.9885 45.6687 11.9369C44.7402 11.797 43.8116 11.5638 42.9295 11.2374Z" fill="url(#paint9_linear_168_904)"/>
<path d="M38.6373 16.9884C39.0861 17.4391 39.8289 17.4391 40.2777 16.9884L42.7693 14.486C43.2026 14.0197 43.1871 13.2736 42.7074 12.8384C42.2586 12.4188 41.5776 12.4188 41.1288 12.8384L39.4575 14.5171L39.0396 14.0819C38.6063 13.6156 37.8635 13.5845 37.3992 14.0197C36.9349 14.4549 36.904 15.2009 37.3373 15.6672C37.3528 15.6828 37.3683 15.7139 37.3992 15.7294L38.6373 16.9884Z" fill="url(#paint10_linear_168_904)"/>
<defs>
<linearGradient id="paint0_linear_168_904" x1="73.9241" y1="-29.1659" x2="13.8167" y2="13.8799" gradientUnits="userSpaceOnUse">
<stop stop-color="#2F4175"/>
<stop offset="1" stop-color="#334374"/>
</linearGradient>
<linearGradient id="paint1_linear_168_904" x1="58.6622" y1="29.8059" x2="58.2965" y2="34.1285" gradientUnits="userSpaceOnUse">
<stop stop-color="#2F4175"/>
<stop offset="1" stop-color="#334374"/>
</linearGradient>
<linearGradient id="paint2_linear_168_904" x1="43.7654" y1="36.3495" x2="43.1" y2="40.5988" gradientUnits="userSpaceOnUse">
<stop stop-color="#2F4175"/>
<stop offset="1" stop-color="#334374"/>
</linearGradient>
<linearGradient id="paint3_linear_168_904" x1="56.6596" y1="36.3495" x2="55.7741" y2="40.5148" gradientUnits="userSpaceOnUse">
<stop stop-color="#2F4175"/>
<stop offset="1" stop-color="#334374"/>
</linearGradient>
<linearGradient id="paint4_linear_168_904" x1="58.6795" y1="42.8931" x2="58.314" y2="47.2157" gradientUnits="userSpaceOnUse">
<stop stop-color="#2F4175"/>
<stop offset="1" stop-color="#334374"/>
</linearGradient>
<linearGradient id="paint5_linear_168_904" x1="33.5638" y1="49.4365" x2="32.1313" y2="53.2523" gradientUnits="userSpaceOnUse">
<stop stop-color="#2F4175"/>
<stop offset="1" stop-color="#334374"/>
</linearGradient>
<linearGradient id="paint6_linear_168_904" x1="57.7276" y1="49.4365" x2="57.2206" y2="53.7302" gradientUnits="userSpaceOnUse">
<stop stop-color="#2F4175"/>
<stop offset="1" stop-color="#334374"/>
</linearGradient>
<linearGradient id="paint7_linear_168_904" x1="58.6795" y1="55.9801" x2="58.314" y2="60.3027" gradientUnits="userSpaceOnUse">
<stop stop-color="#2F4175"/>
<stop offset="1" stop-color="#334374"/>
</linearGradient>
<linearGradient id="paint8_linear_168_904" x1="14.0165" y1="-11.4617" x2="-7.15227" y2="-6.65384" gradientUnits="userSpaceOnUse">
<stop stop-color="#2F4175"/>
<stop offset="1" stop-color="#334374"/>
</linearGradient>
<linearGradient id="paint9_linear_168_904" x1="49.7689" y1="0.551195" x2="34.7438" y2="13.3104" gradientUnits="userSpaceOnUse">
<stop stop-color="#2F4175"/>
<stop offset="1" stop-color="#334374"/>
</linearGradient>
<linearGradient id="paint10_linear_168_904" x1="36.3325" y1="10.4637" x2="40.7463" y2="15.7389" gradientUnits="userSpaceOnUse">
<stop stop-color="#2F4175"/>
<stop offset="1" stop-color="#334374"/>
</linearGradient>
</defs>
</svg>
