<svg width="67" height="78" viewBox="0 0 67 78" fill="none" xmlns="http://www.w3.org/2000/svg">
<path d="M44.7026 10.5806C44.7101 10.7772 44.7258 10.9661 44.7432 11.0966C44.7583 11.2943 44.7815 11.4924 44.8128 11.6818L44.854 11.9219C44.9021 12.1868 44.9568 12.4516 45.018 12.7161C45.0268 12.754 45.0372 12.7913 45.0494 12.828C45.4622 14.3317 46.1691 15.7343 47.1274 16.9514C48.0856 18.1685 49.2755 19.1747 50.625 19.9094V30.1717C51.5062 30.3153 52.3296 30.7104 53 31.3116V19.1424C53 18.9044 52.9314 18.6717 52.8027 18.4732C52.6741 18.2748 52.491 18.1194 52.2764 18.0264C51.0829 17.4767 50.0219 16.6666 49.1679 15.6533C48.3139 14.6399 47.6877 13.4478 47.3333 12.1608L47.3177 12.1063C47.2701 11.8976 47.2272 11.6895 47.1913 11.4918L47.1553 11.2798C47.1356 11.1602 47.1205 11.035 47.1054 10.8518C47.0904 10.7304 47.0805 10.6091 47.0764 10.5318C47.0764 10.514 47.0758 10.438 47.0752 10.4205C47.0694 10.2894 47.0636 10.1582 47.0636 10.0149C47.0634 9.704 47.0791 9.39324 47.1106 9.08397C47.139 8.86875 47.1669 8.65918 47.2121 8.42C47.2445 8.22173 47.288 8.02554 47.3426 7.83239C47.3912 7.63969 47.451 7.44698 47.5194 7.24864C47.7456 6.57907 48.053 5.94103 48.4344 5.34938C48.5353 5.19219 48.6416 5.04022 48.7533 4.89348C48.7643 4.87927 48.7747 4.86447 48.7857 4.84966L48.8438 4.77597C48.9366 4.65904 49.027 4.54329 49.0908 4.47077C49.124 4.43679 49.1552 4.40081 49.1841 4.36302C49.2804 4.25586 49.3784 4.15107 49.4857 4.03564L49.5326 3.98799C49.5779 3.95195 49.6205 3.91257 49.6602 3.87017C49.7523 3.7727 49.8501 3.68097 49.953 3.59546C49.9692 3.58213 49.9907 3.56231 50.0116 3.54307C50.0243 3.53182 50.0371 3.52087 50.0498 3.50991V8.92827C50.0498 8.97267 50.0521 9.01704 50.0568 9.06118C50.1464 9.6771 50.4361 10.2444 50.8795 10.672C51.3228 11.0995 51.894 11.3625 52.5014 11.4187C52.5768 11.4279 52.6527 11.4323 52.7287 11.432H57.9912C58.0714 11.4324 58.1515 11.4284 58.2313 11.4202C59.4431 11.3225 60.7188 10.4684 60.7188 9.06057V3.52471L60.7327 3.53683C60.7536 3.55726 60.7756 3.5768 60.7982 3.59545C60.9005 3.68025 60.9977 3.7713 61.0893 3.86808C61.1275 3.90966 61.1688 3.94816 61.2128 3.98323L61.2493 4.01875C61.3462 4.12236 61.443 4.22597 61.5607 4.35504C61.5816 4.38257 61.6036 4.40921 61.6268 4.43496C61.7242 4.54331 61.8147 4.65905 61.9074 4.77598L61.9689 4.85354C61.977 4.86506 61.9851 4.87603 61.9938 4.88728C62.1069 5.03588 62.2147 5.1898 62.3168 5.34967C62.7005 5.94448 63.0093 6.58627 63.2358 7.25989C63.3002 7.44609 63.3599 7.63758 63.408 7.82973C63.459 8.03221 63.5048 8.2409 63.5443 8.44989C63.5843 8.66007 63.6127 8.87083 63.637 9.05141C63.6707 9.37361 63.6876 9.69743 63.6875 10.0215C63.6875 10.1582 63.6817 10.2894 63.6759 10.4205V10.4829C63.6707 10.6105 63.6603 10.7334 63.6411 10.9057C63.6307 11.0321 63.6162 11.1588 63.5994 11.2624L63.5617 11.4796C63.5234 11.6919 63.4801 11.9041 63.4318 12.1164C63.4272 12.1312 63.4231 12.146 63.4196 12.1611L63.4179 12.1608C63.0777 13.4538 62.4576 14.6523 61.6033 15.668C60.7489 16.6836 59.6822 17.4905 58.4818 18.0291C58.2651 18.121 58.08 18.2764 57.9498 18.4757C57.8195 18.6749 57.75 18.9091 57.75 19.1487V58.171C57.75 58.422 57.8263 58.6669 57.9684 58.8717C58.1105 59.0766 58.3113 59.2314 58.5432 59.3148C61.7167 60.4551 63.6875 63.5165 63.6875 67.305C63.7113 68.6034 63.4593 69.8917 62.9489 71.0812C62.4385 72.2707 61.6819 73.3333 60.731 74.1957V68.7762C60.6829 68.0435 60.3834 67.3516 59.885 66.8222C59.3866 66.2928 58.7214 65.9598 58.0063 65.8817H52.7437C51.2895 65.8817 50.0435 67.466 50.0435 68.7632V74.2153C49.0641 73.3407 48.2883 72.2538 47.7728 71.034C47.2573 69.8142 47.015 68.4922 47.0637 67.1647C47.1258 63.5254 49.1476 60.4456 52.2144 59.3183C52.4445 59.2339 52.6434 59.079 52.784 58.8749C52.9246 58.6707 53.0001 58.4271 53 58.1775V42.3591C52.3176 42.9205 51.4949 43.2756 50.625 43.3844V46.7973C50.938 47.4562 51.1005 48.179 51.1005 48.9113C51.1005 49.6436 50.938 50.3663 50.625 51.0252V57.3652C48.833 58.252 47.324 59.6396 46.2732 61.367C45.2225 63.0943 44.673 65.0905 44.6887 67.1238C44.6168 71.7121 46.9941 75.783 50.7468 77.4946C50.9276 77.5769 51.1258 77.6118 51.3231 77.5961C51.5205 77.5803 51.7109 77.5145 51.877 77.4045C52.0432 77.2945 52.1797 77.1438 52.2743 76.9662C52.3688 76.7886 52.4184 76.5896 52.4185 76.3875L52.4167 68.7934C52.4896 68.5924 52.625 68.4214 52.8023 68.3067H57.9477C58.1245 68.4208 58.266 68.5835 58.356 68.7762V76.3875C58.356 76.5903 58.4058 76.7898 58.5009 76.9679C58.5959 77.1459 58.7332 77.2968 58.9002 77.4066C59.0671 77.5165 59.2584 77.5818 59.4565 77.5967C59.6546 77.6115 59.8531 77.5754 60.034 77.4916C63.6962 75.7966 66.0625 71.798 66.0625 67.305C66.0625 62.8469 63.7588 59.0342 60.125 57.3528V19.921C61.4782 19.1879 62.6706 18.1807 63.6295 16.961C64.5884 15.7412 65.2936 14.3346 65.7019 12.8271C65.714 12.7907 65.7245 12.7537 65.7332 12.7161C65.7946 12.4515 65.8491 12.1869 65.9007 11.9015L65.9384 11.6824C65.9692 11.4939 65.9929 11.2973 66.0034 11.1505C66.026 10.9631 66.0411 10.7757 66.0486 10.5264C66.0556 10.3604 66.0625 10.1943 66.0625 10.0214C66.0622 9.59986 66.0396 9.17859 65.9947 8.75951C65.9599 8.49783 65.9245 8.24325 65.8764 7.98896C65.8277 7.73231 65.7714 7.47566 65.7088 7.22671C65.6433 6.96621 65.5627 6.70542 65.4792 6.46417C65.1889 5.60326 64.7943 4.78282 64.3045 4.022C64.1734 3.81715 64.0348 3.61911 63.8905 3.42787C63.8736 3.4039 63.8562 3.38051 63.8383 3.35801L63.8389 3.35772L63.7548 3.25233C63.6464 3.11468 63.5379 2.97911 63.4243 2.84945C63.4057 2.8252 63.3866 2.8015 63.3663 2.7787C63.2329 2.62891 63.0996 2.48564 62.9494 2.32579C62.8874 2.26213 62.8242 2.19998 62.7575 2.14107C62.6311 2.00993 62.4948 1.88235 62.3435 1.75358C62.3284 1.73937 62.3133 1.72546 62.2977 1.71184C62.1081 1.54844 61.9185 1.39302 61.7375 1.26159C61.5474 1.11565 61.3504 0.976418 61.1467 0.843884C61.1276 0.829673 61.1084 0.816354 61.0887 0.803331L61.0893 0.803034C60.9043 0.682257 60.7084 0.567403 60.499 0.449288C60.4747 0.434192 60.4492 0.419096 60.4289 0.407844C60.2381 0.302757 60.0398 0.205357 59.8902 0.13876C59.6453 0.0141647 59.3658 -0.0205665 59.0988 0.0404018C58.8318 0.10137 58.5934 0.254323 58.4238 0.473562C58.2743 0.664853 58.1863 0.898662 58.172 1.14297C58.1577 1.38727 58.2177 1.63012 58.3438 1.83826V8.91048C58.2491 8.96312 58.1446 8.9947 58.0371 9.00314C57.9976 9.00609 57.9582 9.01084 57.9193 9.01735C57.9489 9.01231 57.982 9.00758 57.9912 9.00699H52.7565C52.7426 9.00551 52.7281 9.00432 52.7142 9.00314C52.656 8.99259 52.6004 8.97033 52.5508 8.93764C52.5011 8.90496 52.4583 8.86252 52.4248 8.81277V1.84004C52.5495 1.63779 52.6087 1.40065 52.5941 1.16215C52.5852 0.942185 52.5178 0.728853 52.3991 0.545065C52.2804 0.361276 52.1149 0.213973 51.9204 0.118972C51.7581 0.0418975 51.581 0.00260645 51.402 0.00393905C51.223 0.00527164 51.0466 0.0471946 50.8854 0.126678C50.6952 0.213414 50.5056 0.307249 50.3224 0.407899C50.3003 0.419739 50.2795 0.43247 50.2586 0.445789C50.0585 0.558279 49.8533 0.678165 49.6614 0.803974V0.80458C49.6434 0.81642 49.626 0.828558 49.608 0.841289C49.4039 0.974203 49.2079 1.11333 49.0369 1.24445C48.8328 1.39305 48.6432 1.54846 48.4536 1.71186L48.4136 1.74857C48.2676 1.87193 48.1279 2.00274 47.9949 2.1405C47.9277 2.19941 47.8639 2.26187 47.8018 2.32581C47.7955 2.33202 47.7595 2.3708 47.7531 2.37702C47.6308 2.50875 47.5079 2.64077 47.4244 2.73668C47.3904 2.7713 47.3587 2.80808 47.3293 2.8468C47.2145 2.97734 47.106 3.11381 46.9965 3.25235L46.9124 3.35774C46.8938 3.38112 46.8764 3.40539 46.8596 3.42996C46.7152 3.6206 46.5778 3.81785 46.4473 4.02171C45.9593 4.77892 45.5658 5.59546 45.2761 6.45233C45.1885 6.70453 45.1091 6.96415 45.0511 7.19505C44.9783 7.45612 44.9194 7.72106 44.8748 7.98868C44.8267 8.24415 44.7908 8.49991 44.7531 8.79297C44.7097 9.20096 44.6882 9.61106 44.6887 10.0215C44.6887 10.1943 44.6957 10.3604 44.7015 10.4735C44.7015 10.4898 44.702 10.5644 44.7026 10.5806Z" fill="url(#paint0_linear_168_894)"/>
<path d="M25.2172 23.9705C26.1848 23.4934 27.2016 23.1283 28.2487 22.882C28.5192 22.8184 28.7594 22.6601 28.9275 22.4345C29.0956 22.2089 29.181 21.9303 29.1689 21.647L29.0494 18.9521L32.5939 18.7902L32.7093 21.4893C32.7215 21.7724 32.8304 22.0423 33.0171 22.252C33.2038 22.4618 33.4566 22.598 33.7316 22.6372C35.7529 22.9236 37.6916 23.6453 39.4192 24.7544C39.6545 24.9047 39.934 24.9662 40.2091 24.9281C40.4842 24.89 40.7375 24.7546 40.925 24.5457L42.7097 22.5508L45.3277 24.9947L43.5378 26.9899C43.3502 27.1989 43.2403 27.4684 43.2272 27.7516C43.214 28.0348 43.2985 28.3137 43.4659 28.5399C44.6987 30.2002 45.5718 32.109 46.0276 34.14C46.0903 34.4158 46.2455 34.6606 46.4662 34.8321C46.6869 35.0036 46.9594 35.091 47.2365 35.0793L49.8759 34.9579L50.0348 38.5768L47.3919 38.6946C47.1145 38.7069 46.8502 38.818 46.6448 39.0087C46.4394 39.1994 46.3059 39.4576 46.2676 39.7383C45.987 41.8023 45.28 43.7818 44.1935 45.5457C44.0462 45.786 43.986 46.0714 44.0234 46.3523C44.0608 46.6332 44.1934 46.8918 44.3982 47.0832L46.3517 48.9055L43.9581 51.5786L42.0047 49.751C41.7999 49.5596 41.5359 49.4475 41.2587 49.4341C40.9814 49.4207 40.7082 49.5068 40.4867 49.6776C38.8602 50.9361 36.9906 51.8276 35.0014 52.2932C34.7309 52.3568 34.4907 52.5152 34.3226 52.7408C34.1545 52.9664 34.0691 53.245 34.0812 53.5282L34.2001 56.2226L30.6562 56.3848L30.5408 53.6857C30.5287 53.4025 30.4198 53.1326 30.233 52.9229C30.0463 52.7131 29.7935 52.5769 29.5185 52.5377C28.4263 52.3816 27.3553 52.0977 26.3266 51.6918C25.9732 52.4841 25.4016 53.1542 24.6815 53.6204C25.8121 54.1362 26.9955 54.5217 28.2098 54.7697L28.2834 56.4901C28.3101 57.1131 28.5711 57.7015 29.012 58.1329C29.4528 58.5643 30.0397 58.8055 30.6503 58.8062C30.6857 58.8062 30.7211 58.8056 30.7564 58.8038L34.3039 58.6452C34.615 58.6314 34.9205 58.5552 35.2027 58.4208C35.485 58.2865 35.7386 58.0967 35.9491 57.8623C36.1595 57.6278 36.3226 57.3534 36.4291 57.0546C36.5357 56.7557 36.5835 56.4384 36.5699 56.1207L36.4962 54.4002C38.1341 53.9117 39.6891 53.1699 41.1071 52.2008L42.3537 53.3665C42.8178 53.7994 43.4311 54.0268 44.0591 53.9988C44.6871 53.9709 45.2786 53.6898 45.704 53.2173L48.1022 50.5443C48.3126 50.3098 48.4758 50.0354 48.5824 49.7365C48.6889 49.4377 48.7368 49.1204 48.7232 48.8027C48.7096 48.485 48.6349 48.1731 48.5033 47.8849C48.3717 47.5966 48.1857 47.3377 47.9561 47.1229L46.71 45.9571C47.5318 44.43 48.1198 42.7834 48.4536 41.0746L50.138 40.9994C50.4491 40.9857 50.7546 40.9094 51.0369 40.7751C51.3192 40.6407 51.5729 40.4509 51.7833 40.2164C51.9937 39.982 52.1569 39.7075 52.2634 39.4086C52.3699 39.1098 52.4176 38.7924 52.404 38.4747L52.2486 34.8523C52.2351 34.5346 52.1605 34.2228 52.029 33.9346C51.8974 33.6464 51.7116 33.3875 51.4821 33.1727C51.2525 32.9578 50.9838 32.7913 50.6912 32.6825C50.3985 32.5738 50.0878 32.525 49.7767 32.5389L48.0912 32.614C47.6127 30.9415 46.8863 29.3536 45.9371 27.9055L47.0788 26.633C47.5034 26.1594 47.7266 25.5331 47.6992 24.8917C47.6718 24.2502 47.3961 23.6461 46.9326 23.2121L44.3147 20.7629C43.8506 20.3298 43.2372 20.1024 42.609 20.1304C41.9809 20.1584 41.3892 20.4396 40.9638 20.9124L39.8221 22.1853C38.3265 21.3461 36.7139 20.7457 35.0403 20.4049L34.9667 18.6845C34.9392 18.0429 34.6633 17.4388 34.1997 17.005C33.736 16.5711 33.1226 16.3431 32.4942 16.3711L28.9457 16.5294C28.3176 16.5584 27.7265 16.8405 27.3018 17.3138C26.8771 17.7872 26.6536 18.4131 26.6803 19.0545L26.7539 20.7749C25.6381 21.1111 24.5597 21.5654 23.5364 22.1305C24.2569 22.5678 24.84 23.2062 25.2172 23.9705Z" fill="url(#paint1_linear_168_894)"/>
<path d="M31.9347 44.8293H31.9326L31.6773 45.5468C31.4549 46.1719 31.0994 46.7387 30.6363 47.2063C30.9613 47.2417 31.2878 47.2601 31.6146 47.2614C31.7556 47.2614 31.8968 47.2582 32.0385 47.2519C33.338 47.2031 34.6138 46.8817 35.7864 46.3077C36.9589 45.7337 38.0033 44.9194 38.8543 43.9154C39.7053 42.9115 40.3448 41.7394 40.733 40.4722C41.1212 39.205 41.2497 37.8697 41.1106 36.5496C40.9715 35.2294 40.5677 33.9526 39.9245 32.7987C39.2812 31.6448 38.4121 30.6384 37.3715 29.8423C36.3308 29.0462 35.1407 28.4773 33.8754 28.1711C32.6101 27.8648 31.2965 27.8279 30.0166 28.0624C30.4196 28.4504 30.747 28.9128 30.9814 29.4253L31.401 30.3434C31.4783 30.3409 31.5557 30.3382 31.6326 30.3382C33.4881 30.3402 35.2691 31.0837 36.5943 32.4098C37.9195 33.7358 38.6837 35.5388 38.7232 37.4329C38.7627 39.327 38.0743 41.1617 36.8056 42.544C35.5368 43.9264 33.7884 44.7467 31.9347 44.8293Z" fill="url(#paint2_linear_168_894)"/>
<path d="M2.0912 36.7781L2.98589 37.11C2.89061 38.2098 2.93779 39.3177 3.12621 40.405L2.26574 40.8153C1.77618 41.0485 1.39743 41.4708 1.21279 41.9892C1.02815 42.5076 1.05275 43.0796 1.28118 43.5795L2.35851 45.9364C2.58751 46.4359 3.00121 46.8223 3.50884 47.0107C4.01648 47.1992 4.57661 47.1744 5.06633 46.9417L5.92623 46.5314C6.62177 47.377 7.42343 48.1253 8.31051 48.7569L7.98464 49.6716C7.80118 50.1901 7.82644 50.7616 8.05488 51.2611C8.28333 51.7606 8.69634 52.1472 9.20345 52.3364L11.5964 53.2239C11.8478 53.3174 12.1148 53.3594 12.3821 53.3476C12.6494 53.3357 12.9118 53.2701 13.1542 53.1547C13.3967 53.0392 13.6145 52.8761 13.7952 52.6746C13.9759 52.4732 14.116 52.2373 14.2074 51.9806L14.5327 51.0671C15.6098 51.1643 16.6947 51.1162 17.7594 50.9238L18.1613 51.8024C18.3897 52.3022 18.8033 52.689 19.311 52.8775C19.8187 53.066 20.379 53.0409 20.8685 52.8077L23.1768 51.7077C23.666 51.4738 24.0443 51.0513 24.2289 50.533C24.4134 50.0147 24.3892 49.4429 24.1614 48.9428L23.7596 48.0648C24.5877 47.3546 25.3206 46.5361 25.9392 45.6304L26.835 45.9631C27.3428 46.1504 27.9025 46.1246 28.3917 45.8914C28.8809 45.6581 29.2596 45.2364 29.4448 44.7186L30.314 42.2753C30.4056 42.0186 30.4468 41.746 30.4352 41.4731C30.4235 41.2001 30.3594 40.9322 30.2463 40.6846C30.1332 40.4371 29.9734 40.2147 29.7761 40.0302C29.5788 39.8456 29.3478 39.7026 29.0964 39.6093L28.2017 39.2775C28.297 38.1775 28.2498 37.0695 28.0614 35.9822L28.9219 35.5722C29.1643 35.4567 29.382 35.2937 29.5627 35.0923C29.7434 34.8909 29.8834 34.6551 29.9748 34.3985C30.0663 34.1418 30.1073 33.8693 30.0955 33.5964C30.0838 33.3236 30.0195 33.0557 29.9064 32.8083L28.8291 30.4507C28.6006 29.9509 28.187 29.5642 27.6793 29.3758C27.1716 29.1873 26.6114 29.2125 26.1218 29.4457L25.2614 29.856C24.5657 29.0105 23.764 28.2621 22.8771 27.6302L23.2029 26.7158C23.3865 26.1975 23.3614 25.626 23.1331 25.1266C22.9047 24.6271 22.4918 24.2405 21.9847 24.0513L19.5906 23.163C19.0828 22.9752 18.5229 23.0006 18.0335 23.2338C17.5441 23.467 17.1653 23.8889 16.9802 24.4069L16.6549 25.3204C15.5778 25.2232 14.4929 25.2712 13.4281 25.4634L13.0263 24.5848C12.9132 24.3372 12.7535 24.1149 12.5562 23.9304C12.3589 23.7459 12.128 23.603 11.8766 23.5096C11.6252 23.4163 11.3582 23.3745 11.0909 23.3866C10.8237 23.3987 10.5614 23.4644 10.319 23.5801L8.01072 24.6801C7.52161 24.9138 7.14327 25.3361 6.9587 25.8544C6.77412 26.3726 6.79839 26.9444 7.02617 27.4443L7.42799 28.3229C6.59981 29.0329 5.86695 29.8514 5.2484 30.7571L4.35313 30.425C3.84537 30.2375 3.28555 30.2632 2.79628 30.4963C2.30701 30.7295 1.92817 31.1511 1.74272 31.6688L0.873546 34.1119C0.782006 34.3686 0.74089 34.6412 0.752544 34.9141C0.764198 35.1871 0.828396 35.455 0.94147 35.7026C1.05454 35.9502 1.21428 36.1726 1.41155 36.3571C1.60883 36.5417 1.83977 36.6847 2.0912 36.7781ZM3.8597 32.8218L5.329 33.3671C5.58986 33.4638 5.87565 33.4642 6.13675 33.3681C6.39785 33.2721 6.61776 33.0857 6.75829 32.8414C7.47329 31.5927 8.43996 30.5135 9.59426 29.6751C9.82047 29.5107 9.9831 29.2706 10.0539 28.9964C10.1246 28.7223 10.0991 28.4315 9.98159 28.1746L9.32173 26.7315L11.0172 25.9234L11.677 27.3668C11.7941 27.6238 11.9959 27.8307 12.2472 27.9514C12.4984 28.0721 12.7832 28.0989 13.0518 28.0272C14.4227 27.6626 15.8537 27.5991 17.2504 27.841C17.5242 27.8886 17.8057 27.8365 18.0457 27.6936C18.2857 27.5508 18.4688 27.3263 18.5631 27.0595L19.0966 25.5599L20.8552 26.2126L20.3206 27.7122C20.2258 27.9787 20.2254 28.2706 20.3195 28.5373C20.4136 28.804 20.5961 29.0286 20.8355 29.1722C22.0587 29.9022 23.1159 30.8894 23.937 32.0682C24.0982 32.2989 24.3333 32.4648 24.6017 32.5369C24.8701 32.609 25.1548 32.5829 25.4063 32.4631L26.82 31.7893L27.6108 33.5208L26.1978 34.1942C25.9462 34.3141 25.7437 34.5202 25.6255 34.7767C25.5073 35.0332 25.4808 35.3239 25.5507 35.5982C25.9083 36.9979 25.9704 38.4592 25.7328 39.8852C25.687 40.1647 25.7384 40.4518 25.8782 40.6966C26.018 40.9414 26.2374 41.1286 26.4981 41.2256L27.9669 41.7703L27.3279 43.5659L25.8592 43.02C25.5982 42.9234 25.3124 42.923 25.0512 43.019C24.79 43.1151 24.57 43.3014 24.4293 43.5458C23.7142 44.7947 22.7473 45.8741 21.5928 46.7126C21.3667 46.8772 21.2043 47.1175 21.1337 47.3916C21.063 47.6658 21.0886 47.9565 21.206 48.2134L21.8659 49.6562L20.1704 50.4644L19.5106 49.0204C19.3932 48.7634 19.1913 48.5566 18.94 48.436C18.6887 48.3154 18.4039 48.2886 18.1352 48.3603C16.7647 48.726 15.3336 48.7894 13.9372 48.5462C13.6634 48.4988 13.382 48.551 13.1421 48.6939C12.9021 48.8367 12.7189 49.061 12.6245 49.3276L12.091 50.8273L10.3324 50.1749L10.867 48.6752C10.9617 48.4088 10.9621 48.1169 10.8681 47.8502C10.774 47.5835 10.5915 47.3588 10.3521 47.2153C9.12895 46.4851 8.07176 45.4979 7.25056 44.319C7.08931 44.0882 6.85402 43.9224 6.58553 43.8503C6.31704 43.7781 6.03228 43.8043 5.78068 43.9241L4.36763 44.5978L3.57616 42.8667L4.99038 42.193C5.2419 42.073 5.4443 41.8668 5.56241 41.6102C5.68051 41.3537 5.70687 41.063 5.63689 40.7886C5.27925 39.3893 5.21718 37.9283 5.45483 36.5026C5.50066 36.223 5.44922 35.9359 5.30942 35.691C5.16961 35.4461 4.95027 35.2589 4.68944 35.1619L3.22072 34.6169L3.8597 32.8218Z" fill="url(#paint3_linear_168_894)"/>
<path d="M13.1567 45.0378C14.7075 45.6135 16.4059 45.6225 17.9624 45.063C19.5189 44.5036 20.8373 43.4104 21.6929 41.9697C22.5485 40.529 22.8884 38.83 22.6546 37.1621C22.4209 35.4942 21.628 33.9606 20.411 32.8228C19.1941 31.6849 17.6283 31.013 15.9806 30.9217C14.3329 30.8304 12.7052 31.3253 11.3748 32.322C10.0443 33.3187 9.09355 34.7556 8.6844 36.3879C8.27525 38.0202 8.43306 39.7468 9.13093 41.2736C9.93091 43.0237 11.379 44.3777 13.1567 45.0378ZM11.1227 36.534C11.4986 35.4773 12.2217 34.5865 13.1689 34.0132C14.116 33.44 15.2285 33.2198 16.3168 33.3902C17.4051 33.5606 18.4018 34.1111 19.1372 34.9477C19.8726 35.7844 20.301 36.8556 20.3496 37.9787C20.3982 39.1018 20.0638 40.2074 19.4036 41.107C18.7433 42.0066 17.7979 42.6446 16.7285 42.9123C15.6592 43.1799 14.532 43.0607 13.5391 42.5749C12.5462 42.0892 11.749 41.2669 11.2833 40.2482C11.0173 39.6707 10.8661 39.045 10.8386 38.4075C10.811 37.77 10.9076 37.1332 11.1227 36.534Z" fill="url(#paint4_linear_168_894)"/>
<defs>
<linearGradient id="paint0_linear_168_894" x1="42.2203" y1="-33.2779" x2="77.6656" y2="-24.0149" gradientUnits="userSpaceOnUse">
<stop stop-color="#2F4175"/>
<stop offset="1" stop-color="#334374"/>
</linearGradient>
<linearGradient id="paint1_linear_168_894" x1="20.2046" y1="-1.8331" x2="56.309" y2="21.4678" gradientUnits="userSpaceOnUse">
<stop stop-color="#2F4175"/>
<stop offset="1" stop-color="#334374"/>
</linearGradient>
<linearGradient id="paint2_linear_168_894" x1="28.73" y1="19.6104" x2="43.9367" y2="27.9215" gradientUnits="userSpaceOnUse">
<stop stop-color="#2F4175"/>
<stop offset="1" stop-color="#334374"/>
</linearGradient>
<linearGradient id="paint3_linear_168_894" x1="-2.67538" y1="10.0377" x2="25.5485" y2="36.2613" gradientUnits="userSpaceOnUse">
<stop stop-color="#2F4175"/>
<stop offset="1" stop-color="#334374"/>
</linearGradient>
<linearGradient id="paint4_linear_168_894" x1="6.81542" y1="24.6638" x2="20.3776" y2="37.2647" gradientUnits="userSpaceOnUse">
<stop stop-color="#2F4175"/>
<stop offset="1" stop-color="#334374"/>
</linearGradient>
</defs>
</svg>
